<?xml version="1.0" encoding="UTF-8"?>
<svg xmlns="http://www.w3.org/2000/svg" viewBox="0 0 793 768">
  <path d="M0,0 L6,1 L27,17 L45,30 L65,45 L84,59 L104,74 L120,86 L141,102 L154,112 L171,126 L182,135 L199,149 L212,160 L222,168 L239,182 L255,195 L269,206 L285,218 L294,212 L306,202 L320,191 L337,177 L348,168 L365,154 L378,143 L388,135 L399,126 L415,113 L429,102 L450,86 L468,73 L489,57 L503,47 L524,31 L538,21 L559,5 L566,0 L572,1 L582,10 L593,19 L608,32 L619,41 L634,54 L645,63 L660,76 L665,80 L667,83 L667,93 L648,224 L610,479 L575,713 L572,733 L568,739 L561,739 L543,726 L527,714 L508,700 L487,684 L467,669 L447,654 L431,642 L424,643 L408,655 L389,668 L371,681 L353,694 L336,706 L319,718 L301,731 L289,739 L282,739 L271,732 L253,719 L233,705 L215,692 L198,680 L180,667 L163,655 L145,642 L140,642 L121,656 L100,672 L81,686 L60,702 L41,716 L20,732 L9,739 L3,739 L-1,734 L-10,675 L-51,401 L-79,213 L-96,97 L-97,86 L-94,80 L-83,70 L-72,61 L-58,49 L-45,38 L-31,26 L-20,17 L-5,4 Z M-5,24 L-16,33 L-29,44 L-40,53 L-55,66 L-69,78 L-78,86 L-77,90 L-69,98 L-61,105 L-25,141 L-18,149 L-5,165 L-3,164 L-3,24 Z M12,24 L11,54 L11,170 L12,184 L16,184 L29,173 L43,162 L57,150 L71,139 L85,127 L96,118 L109,107 L115,102 L115,100 L102,90 L81,74 L62,60 L43,46 L24,32 L13,24 Z M557,24 L538,38 L517,54 L498,68 L477,84 L458,98 L456,100 L457,104 L467,112 L480,123 L490,131 L503,142 L514,151 L525,160 L542,174 L557,186 L559,186 L559,24 Z M574,25 L574,165 L579,160 L588,150 L595,142 L607,129 L630,106 L638,99 L649,88 L643,81 L629,69 L619,60 L608,51 L594,39 L580,28 L576,25 Z M-79,107 L-73,154 L-53,294 L-31,440 L-5,609 L-4,609 L-3,604 L-3,202 L-7,189 L-13,178 L-27,159 L-39,145 L-53,130 L-65,118 L-73,111 Z M647,108 L640,115 L632,122 L612,142 L605,150 L593,164 L583,179 L576,193 L573,206 L573,419 L574,609 L575,609 L592,502 L618,331 L635,215 L646,136 L648,119 L648,108 Z M126,111 L112,122 L95,136 L82,147 L72,155 L58,167 L47,176 L32,189 L22,198 L18,202 L19,206 L31,220 L46,240 L59,258 L70,275 L82,295 L94,317 L107,344 L118,372 L128,403 L134,427 L135,427 L135,116 L130,111 Z M441,111 L436,116 L435,119 L435,431 L437,430 L444,400 L456,364 L466,340 L478,315 L488,296 L502,273 L510,261 L522,244 L531,232 L542,218 L553,204 L552,199 L541,190 L528,179 L517,170 L506,161 L489,147 L478,138 L467,129 L456,120 L445,111 Z M154,132 L155,140 L179,246 L188,282 L192,282 L208,272 L242,249 L262,235 L271,228 L269,224 L258,215 L241,201 L230,192 L219,183 L208,174 L192,161 L178,150 L161,136 L156,132 Z M415,132 L405,140 L389,153 L373,166 L359,177 L346,188 L336,196 L325,205 L309,218 L299,226 L300,230 L330,250 L373,279 L382,284 L393,240 L412,157 L417,132 Z M149,178 L149,322 L153,320 L159,312 L168,302 L176,294 L175,285 L154,193 L150,178 Z M420,179 L413,209 L398,275 L395,288 L395,294 L402,302 L412,312 L420,322 L421,322 L421,179 Z M12,220 L12,719 L17,717 L28,708 L47,694 L61,683 L66,678 L77,659 L90,635 L101,611 L110,586 L117,562 L122,536 L125,511 L125,465 L122,441 L117,417 L110,391 L101,365 L90,339 L75,309 L59,282 L51,270 L37,250 L23,232 L14,221 Z M557,220 L546,233 L534,249 L520,269 L508,288 L494,312 L480,340 L470,364 L458,400 L451,427 L447,450 L445,471 L445,507 L448,535 L454,564 L460,585 L467,605 L477,628 L491,656 L504,678 L509,683 L525,696 L544,710 L557,720 L558,720 L559,704 L559,220 Z M293,241 L292,392 L292,585 L293,642 L294,657 L295,657 L324,534 L345,445 L374,321 L378,304 L378,298 L367,290 L343,274 L323,260 L300,245 Z M276,242 L251,258 L237,268 L222,278 L194,297 L193,298 L193,305 L213,391 L241,510 L268,624 L276,658 L278,660 L278,242 Z M390,310 L362,428 L328,572 L300,692 L295,714 L295,716 L300,714 L314,704 L329,690 L340,677 L351,661 L361,644 L370,625 L380,599 L390,567 L408,499 L420,455 L422,437 L422,387 L421,354 L417,342 L410,330 L401,319 L392,310 Z M178,311 L170,318 L161,330 L152,346 L149,357 L149,442 L152,460 L169,521 L183,575 L195,612 L206,637 L217,657 L228,673 L239,687 L255,703 L270,714 L275,716 L271,696 L248,595 L228,509 L208,425 L190,351 L180,311 Z M149,505 L149,626 L154,631 L168,641 L186,654 L205,667 L207,666 L193,640 L184,620 L173,585 L153,513 L150,505 Z M420,505 L411,537 L399,582 L387,618 L378,639 L368,659 L364,665 L364,667 L369,665 L387,652 L404,640 L418,630 L421,627 L422,596 L422,570 L421,505 Z M435,549 L435,625 L438,630 L456,644 L472,656 L476,658 L474,652 L461,624 L450,596 L443,575 L437,551 Z M134,550 L127,577 L119,601 L108,627 L95,654 L93,659 L100,655 L115,643 L134,629 L135,627 L135,550 Z " fill="#c89f62" transform="translate(112,15)"/>
</svg>
