<?xml version="1.0" encoding="UTF-8"?>
<svg id="Layer_2" data-name="Layer 2" xmlns="http://www.w3.org/2000/svg" viewBox="0 0 395.13 321.58">
  <defs>
    <style>
      .cls-1 {
        fill: #e7c17c;
      }

      .cls-1, .cls-2, .cls-3 {
        stroke-width: 0px;
      }

      .cls-2 {
        fill: #2e2f32;
      }

      .cls-4 {
        letter-spacing: -.02em;
      }

      .cls-5 {
        letter-spacing: 0em;
      }

      .cls-6 {
        letter-spacing: -.02em;
      }

      .cls-7 {
        letter-spacing: 0em;
      }

      .cls-8 {
        font-size: 18.93px;
      }

      .cls-8, .cls-9 {
        fill: #c99f6d;
        font-family: PlayfairDisplay-Regular, 'Playfair Display';
      }

      .cls-10 {
        letter-spacing: 0em;
      }

      .cls-3 {
        fill: #ad884d;
      }

      .cls-11 {
        letter-spacing: 0em;
      }

      .cls-12 {
        fill: #ededed;
        font-family: PlayfairDisplay-Bold, 'Playfair Display';
        font-size: 71.82px;
        font-weight: 700;
      }

      .cls-9 {
        font-size: 12px;
      }

      .cls-13 {
        letter-spacing: -.01em;
      }

      .cls-14 {
        letter-spacing: -.02em;
      }
    </style>
  </defs>
  <g id="Layer_1-2" data-name="Layer 1">
    <text class="cls-12" transform="translate(0 292.13)"><tspan class="cls-10" x="0" y="0">O</tspan><tspan class="cls-7" x="56.39" y="0">RL</tspan><tspan class="cls-6" x="149.94" y="0">A</tspan><tspan class="cls-11" x="196.41" y="0">D</tspan><tspan class="cls-5" x="251.5" y="0">EN</tspan><tspan class="cls-4" x="348.87" y="0">T</tspan></text>
    <text class="cls-8" transform="translate(119.88 317.02)"><tspan x="0" y="0">Exactness, Earned</tspan></text>
    <text class="cls-9" transform="translate(35.55 132.15)"><tspan x="0" y="0">ES</tspan><tspan class="cls-14" x="13.79" y="0">T</tspan></text>
    <text class="cls-9" transform="translate(323.76 132.15)"><tspan x="0" y="0">202</tspan><tspan class="cls-13" x="18.7" y="0">5</tspan></text>
    <g>
      <path class="cls-3" d="M157.34,17.73c.5.7,1.06,1.35,1.82,1.77.87.48,1.58.27,1.85-.68.38-1.36.38-2.72-.81-3.78.39-.01.78-.03,1.17-.04,1.13.89,2.08,2.1,3.7,2.11,1.77.72,3.54.9,5.46.44,6.14-1.49,12.27-1.59,18.32.54.41.55.32,1.16.14,1.73-.48,1.47-.62,3-.83,4.52-.75.02-1.41-.34-2.07-.6-1.5-.58-3.07-.71-4.65-.84-.51-.04-.92.04-1.15.55-.65-.2-1.24-.62-1.75.38-.62,1.23-1.8,1.96-3,2.57-1.07.54-2.17,1.03-3.29,1.48-1.45.59-2.44,1.61-3.06,3.01-.35.8-.67,1.61-.92,2.43-.56,1.84-1.27,3.53-3.21,4.36-.59.25-.72.73-.45,1.33.25.56.49,1.17,1.16,1.28.94.16,1.26.88,1.68,1.57,1.8,3,4.24,5.28,7.38,6.86,2.33,1.18,4.62,1.69,7.07.46.06.86-.64,1.1-1.2,1.43-.4.24-.9.36-1.06.86-.51,1.56-1.21,3.09-.82,5.2,1.05-1.32,1.52-2.72,2.65-3.54,1.14-.82,1.94-2.11,3.64-2.7-.56,1.35-.13,2.33.26,3.33,2.06,5.23,4.12,10.47,6.18,15.7,3.19,8.1,6.4,16.19,9.53,24.31.56,1.44,1.31,2.29,2.93,2.07.01.18.02.36.03.54-.61.41-1.28.29-1.94.19-1.12-.16-2.25-.3-3.35-.53-1.33-.27-2.46,0-3.53.86-2.56,2.05-4.9,4.32-7.02,6.82-1.16,1.36-1.14,1.4.53,1.8,5.86,1.39,11.79,2.17,17.82,1.98.93-.03,1.86.04,2.8.07-.02.12-.05.24-.1.36-.59.04-1.21-.09-1.75.31-.15.71.25,1.29.49,1.9,1.23,3.11,2.48,6.21,3.73,9.31,4.13,10.31,8.24,20.62,12.38,30.93,4.64,11.54,9.31,23.08,13.98,34.61.28.69.31,1.94,1.18,1.81.84-.13,1-1.28,1.01-2.18,2.07-2.78,4.14-5.56,6.41-8.18,5-5.77,8.12-12.47,9.83-19.9.94-4.11,1.14-8.18.25-12.3-.27-1.23-.75-2.26-2.13-2.53.08-.62.24-1.26-.43-1.69-.13-.59-.22-1.18-.38-1.76-.86-2.96-.04-5.51,1.77-7.89,1.05-1.38,2.52-2.16,3.87-3.13.41-.15.81-.3,1.22-.45.96.03,1.82-.29,2.65-.73.53.09,1.06.16,1.58.28,6.37,1.53,11.03,4.93,12.69,11.62.12.49.12,1.06.58,1.42.49,0,.7-.4.94-.69,1.9-2.24,3.78-4.5,5.68-6.74.47-.55.81-1.25,1.59-1.46-.46,1.72-1.74,2.93-2.72,4.33-.57.81-1.34,1.47-1.72,2.41-1.2,1.43-2.39,2.87-3.59,4.3-.42.5-.38,1.11-.46,1.71-.35,2.78-.84,5.53-1.73,8.2-2.88,8.66-7.68,16.17-13.68,22.95-3.42,3.86-6.79,7.75-9.74,11.99-1.62,2.33-2.78,4.88-3.54,7.61-.1.38-.32.82-.03,1.15.39.44.87.09,1.3-.03,1.02-.28,1.8-1.2,2.96-1.09,0,0,0,0,0,0-.68,1.39-2.02,1.89-3.34,2.33-4.62,1.57-9.05,1.33-13.2-1.48-.48-.32-.92-.88-1.88-.74,1,1.24,2.1,1.97,3.29,2.56,4.96,2.45,10.03,2.37,15.14.52.81-.29,1.61-.63,2.41-.95.13.22.25.44.38.66-.52,1.05-1.87.98-2.51,1.86q2.13,3.68,1.97,7.8c-.02.57.21.87.67,1.09.78.38,1.56.35,2.29-.12.56-.36,1.08-.76,1.62-1.15,1.54-.1,3.06.08,4.57.29,2.54.34,4.59,1.51,6.27,3.53,2.89,3.48,6.02,6.77,8.75,10.4.36.47.85.86.94,1.5-.6.04-1.2.12-1.8.12-32.8.14-65.61.07-98.41.27-27.52.17-55.03.09-82.55.12-3.74,0-7.49-.14-11.21.46.02-.65.43-1.11.77-1.6,5.35-7.85,10.67-15.72,16.08-23.53.79-1.13.35-2.34.75-3.45.06.19.13.38.16.57.26,1.75.26,1.77,1.93,1.79,1.94.03,3.88.05,5.82.03,1.87-.01,1.93-.03,2.03-1.86.15-2.88.78-5.57,2.62-7.86,1.1-1.36,2.32-2.61,3.75-3.62.83-.58,1.32-1.32,1.42-2.31.27-2.53.63-5.05.35-7.61-.42-3.91-1.76-7.55-3.26-11.15-.47-1.13-1.11-2.11-1.94-3.02-1.06-1.18-2.25-2.31-2.09-4.16.04-.46-.37-.99-.66-1.43-.72-1.14-1.61-2.14-2.56-3.09-.85-.85-1.77-1.65-2.54-2.57-1.27-1.52-1.13-3.34.42-4.59.67-.54.88-1.08.85-1.87-.05-1.67-.21-3.37-.01-5.02.31-2.57-.24-4.6-2.67-5.85-.05-.03-.08-.11-.11-.16.39-.62,1.24-.97,1.16-1.88.53-.16.87.23,1.25.46,1.13.69,2.23,1.42,3.38,2.09,1.52.88,1.55.84,2.08-.91.44-1.46.92-2.9,1.39-4.35,1.38-.88,2.29-1.99,2.04-3.78-.12-.89.32-1.68.67-2.48,2.98-6.71,5.96-13.42,8.72-20.23,1.38-3.4,2.02-7.07,3.81-10.3.13-.23.25-.47.38-.7,1.31-1.89,1.89-4.12,2.78-6.19,1.68-3.93,3.74-7.75,4.28-12.07.6-4.8,2.99-8.52,6.61-11.56.92-.78,1.74-1.68,2.67-2.43,2.52-2.03,5.11-3.9,8.53-4.08.79-.04,1.59-.27,2.34-.53,1.66-.57,2.59-2.06,2.38-3.75-.14-1.16-.6-2.2-1.45-3.03-1.06-1.03-2.15-2.01-3.23-3.02-1-1.2-1.56-2.55-1.4-4.14,1.2,2.53,3.06,4.48,5.25,6.17,1.07.83,1.58,2.04,1.93,3.67.6-2.38.48-3.38-.5-5.6-1.12-2.54-.66-4.15,1.77-5.54,1.12-.65,1.8-1.52,2.21-2.72.43-1.27.96-2.5,1.41-3.76.48-1.36,1.38-2.21,2.73-2.73,1.5-.57,2.96-1.24,4.4-1.94.94-.46,1.82-1.04,2.29-2.07-.25-.13-.36-.21-.48-.23-.2-.03-.4-.04-.6-.02-5.47.49-10.65,1.87-15.32,4.86-.17.11-.34.22-.49.35-.37.3-.79.63-.61,1.16.22.62.77.37,1.19.28.8-.17,1.6-.14,2.4-.13.73,0,1.46,0,2.2,0v.47c-2.1.24-4.2.48-6.3.72.32-2.5-.28-4.75-1.24-7.11-.86-2.11-2.41-3.73-3.21-5.81.63-.31,1.28-.32,1.93-.08ZM181.09,74.93l-.11-.07s.09.03.13.04c0,.06,0,.13.02.18.02.04.08.06.13.08-.06-.08-.11-.16-.17-.24ZM145.42,62.55c1.93-.91,3.86-1.85,5.94-2.39,4.39-1.14,8.36-.5,11.7,2.77.95.93,2.04,1.47,3.38,1.54,2.92.15,5.39,1.37,7.68,3.11,1.62,1.23,2.93,2.72,4.18,4.31.59.75,1.03,1.7,2.25,2.21-.16-1.32-.75-2.2-1.31-3.06-2.4-3.7-4.75-7.44-7.64-10.8-2.49-2.9-5.44-5.12-8.86-6.77-.79-.38-1.61-.69-2.51-.56-3.46.47-6.87,1-9.45,3.76-1.14,1.21-2.53,2.19-3.77,3.3-.74.67-1.48,1.36-1.93,2.28-.42.26-.81.54-.94,1.19.65-.2.96-.54,1.28-.88ZM143.32,178.68c1.09-.58,1.88-1.51,2.65-2.42,1.85-2.22,3.61-4.52,4.13-7.47.37-2.11.6-4.24.56-6.39-.06-2.95-.05-5.9-.06-8.84,0-2.08.27-4.15.66-6.18.79-4.18,2.61-7.86,5.57-10.94.6-.62,1.32-1.21,1.52-2.39-1.5.43-2.59,1.05-3.67,1.72-2.52,1.55-4.7,3.54-6.96,5.43-2.25,1.89-3.31,4.22-3.3,7.2.02,3.63.54,7.21.72,10.82.27,5.4-.11,10.7-1.27,15.96-.26,1.17-.72,2.31-.54,3.55l-.11.04.09-.07ZM129.24,182.69c1.1.88.45,2.36,1.19,3.59.43-1.16,0-2.18.19-3.12.21-1.08.53-.17.79.06.03.02.11-.02.24-.05-.17-1.17-.34-2.31.58-3.36.49-.56.35-1.44-.06-2.1-.42-.67-.38-1.19.15-1.78.79-.89.97-1.93.34-2.97-.43-.7-.15-1.01.38-1.47,1.57-1.36,1.64-2.2.49-3.96-.17-.26-.51-.45-.37-.88.52-.54,1.3-.62,1.91-1.01,1.31-.83,1.71-1.69,1.27-2.81-.46-1.17-1.85-1.96-3.1-1.7-.58.12-1.32.28-1.17,1.07.13.67.79.57,1.33.48.13-.02.26-.05.39-.07.51-.07.96.02,1.12.57.16.52-.09.92-.49,1.21-.71.52-1.5.89-2.37,1.04-.73.13-1.19-.13-1.2-.92,0-1.27,0-2.54.05-3.82.02-.52.24-.89.89-.73,1.74.41,3.47.09,5.17-.24,2.12-.41,4.09-1.27,5.79-2.64.68-.55.6-1.08-.24-1.24-2.14-.41-4.01-1.47-5.96-2.34-2.01-.9-3.13-.28-3.63,1.91-.04.19-.04.4-.1.59-.2.59-.69.85-1.25.79-.6-.07-.57-.63-.63-1.1-.09-.73.36-1.25.66-1.84.38-.75.12-1.44-.5-1.97-.38-.33-.8-.46-1.29-.21-.75.39-1.01,1.04-.93,1.84.03.26.14.52.26.75.2.37.29.75.25,1.16-.06.5.17,1.2-.55,1.33-.67.12-1.13-.3-1.28-.98-.04-.2-.04-.4-.09-.59-.47-1.76-1.47-2.35-3.13-1.66-2.37,1-4.53,2.48-7.08,2.75-.03.58.15.79.37.93,2.84,1.72,5.82,2.99,9.23,2.98.85,0,1.89-.55,2.49.02.68.65.22,1.79.33,2.71.02.13.01.27.01.4.03,2.26-.48,2.58-2.59,1.64-.18-.08-.36-.17-.54-.27-.6-.35-1.17-.77-.92-1.58.21-.69.84-.51,1.36-.49.13,0,.27.02.4,0,.41-.03.85-.08.88-.6.03-.48-.37-.68-.75-.81-1.21-.4-2.98.39-3.4,1.5-.43,1.15.1,2.28,1.36,3,.63.36,1.43.37,1.94,1.04-.07.17-.12.37-.22.52-1.46,2.19-1.45,2.47.48,4.38.42.41.5.71.21,1.2-.66,1.12-.48,2.21.3,3.18.47.59.61,1.11.24,1.81-.42.78-.31,1.61.22,2.27.66.81.74,1.68.58,2.64-.05.07-.09.15-.14.22.04-.08.08-.16.12-.24ZM127.54,201c.72.52,1.41.94,2.01,1.47.67.58,1.32,1.32.82,2.26-.43.83-1.31.46-2,.36-.95-.13-1.88-.38-3.16-.32,1.05,1.17,2.16,1.44,3.24,1.65,3.17.62,6.22,1.48,9.01,3.23,1.16.73,2.51,1.2,3.96,1.07.15-.76-.36-1.04-.76-1.37-.42-.34-.87-.63-1.28-.97-.66-.56-1.05-1.24-.69-2.12.38-.93,1.13-1.29,2.09-1.23.53.03,1.08.1,1.58.27,2.71.88,5.51,1.01,8.33,1.03,2.36.01,2.6.19,3.91,2.31.93-.67,1.69-1.5,2.38-2.39,2.16-2.74,4.26-5.52,6.1-8.48,1.31-2.1,2.78-4.11,3.64-6.47,1.82-4.97,3.38-10.03,4.84-15.12,2.19-7.66,4.26-15.37,7.62-22.65,2.16-4.69,4.39-9.34,6.99-13.8.7-1.2.8-1.22,1.82-.53,3.88,2.63,7.66,5.4,11.27,8.4.84.7,1.03,1.38.82,2.44-.53,2.69-.94,5.41-1.36,8.12-1.45,9.26-2.9,18.53-4.31,27.79-1.38,9-3.03,17.96-4.06,27.01-.11.95-.55,1.43-1.43,1.67-1.31.36-2.66.29-3.99.4-.6.05-1.2.12-1.78.22-.34.06-.63.3-.66.67-.03.37.27.59.57.76.49.28,1.04.28,1.57.19.72-.12,1.46-.25,2.15-.48,2.95-.99,5.68-.61,8.54.65,3.2,1.41,6.7.74,10.08.45.31-.03.61-.27.9-.43,1.69-.95,3.47-.83,5.27-.42.43.1.79.53,1.45.21-.07-.73-.07-1.53-.23-2.29-.64-3.04-.67-6.11-.69-9.2-.04-5.16.27-10.32.32-15.48.09-9.18.23-18.36.35-27.54.01-.99.08-1.99.13-2.98.43,1.62.65,3.25.79,4.89.83,9.68,1.22,19.39,1.61,29.09.24,5.89.6,11.77.91,17.66.01.27.05.53.08.8.1.78.35,1.31,1.29.87,1.33-.6,2.65-.36,3.88.24,3.53,1.73,6.65,1.43,9.52-1.45,1.49-1.5,3.47-2.21,5.61-2.46.83-.1,1.72,0,2.53-.38-.05-.81-.59-1.27-.95-1.81-1.09-1.61-2.13-3.25-3.07-4.95-5.51-9.99-8.98-20.77-12.16-31.64-2.57-8.81-5-17.66-7.02-26.62-.66-2.93-2.1-5.26-4.53-7.11-3.95-2.99-8.01-5.84-12.07-8.68-1.37-.96-2.78-1.21-4.36-.99-1.79.25-3.58.56-5.38.66-3.55.19-6.81,1.31-9.97,2.85-1.13.55-1.95,1.39-2.4,2.58-1.53,4.08-3.32,8.08-4.54,12.24-1.97,6.71-4.61,13.15-7.34,19.56-1.99,4.69-4.23,9.26-6.9,13.62-1.38,2.25-3.09,4.2-5.07,5.93-3.84,3.37-8.11,6.14-12.25,9.1-3.78,2.7-7.86,4.81-12.08,6.69-.48.21-1.04.29-1.48.93ZM184.34,84.9c-1,.77-1.94.94-2.82,1.16-3.32.82-6.23,2.33-8.66,4.79-1.32,1.34-2.62,2.67-3.78,4.15-2.65,3.38-5.07,6.91-7.43,10.49-2.67,4.04-5.54,7.87-9.51,10.76-1.02.75-1.92,1.66-3.12,2.16-2.96,1.25-5.84,2.69-8.67,4.21-1.42.76-2.9,1.09-4.46.76-2.27-.47-4.42,0-6.5.76-1.78.64-3.59,1.35-5.06,2.74.67.45,1.17.07,1.64-.07,4.11-1.21,8.27-1.54,12.51-.91.65.1,1.34.08,2,0,3.26-.45,6.43-1.24,9.55-2.29.78-.27,1.44-.66,1.99-1.29,2.31-2.69,4.67-5.34,6.97-8.04,3.73-4.38,7.16-9.03,11.67-12.7,2.49-2.03,4.93-4.13,7.45-6.12,3.44-2.72,7.06-5.13,11.62-5.51.2-.02.39-.08.59-.12.76-.15.8-.58.45-1.16-.5-.81-1.22-1.41-1.91-2.05-3.25-3-6.37-6.12-8.86-9.8-.64-.94-1.24-1.91-1.93-2.82-2.83-3.71-6.25-6.67-10.94-7.67-2.87-.61-5.56-1.41-7.55-3.74-.21-.25-.53-.41-.82-.57-.32-.17-.66-.53-1.02-.02.1.7.6,1.18.99,1.71,4.04,5.6,7.61,11.5,11.31,17.33.97,1.52.92,1.59-.54,2.42-4.74,2.7-8.95,6.11-12.93,9.81-1.78,1.65-3.22,3.58-4.23,5.81-.55,1.22-1.08,2.46-1.7,3.64-1.83,3.49-4.52,5.69-8.65,5.95-3.2.2-5.59,2.04-7.67,4.33-.22.24-.51.52-.35.88.23.5.69.26,1.05.19,1.65-.28,3.28-.72,4.94-.86,4.14-.34,7.45-2.31,10.55-4.9,2.68-2.24,4.92-4.93,7.67-7.08,4.91-3.83,9.54-7.98,14.13-12.2,2.66-2.45,5.96-3.82,9.51-4.47.73-.14,1.55-.34,2.54.32ZM198.83,94.66c-1.05-1.51-2.81-2.06-4.89-1.49-1.17.32-2.22.93-3.26,1.54-7.46,4.42-14.33,9.59-20.31,15.93-4.27,4.53-8.74,8.86-13.33,13.08-.44.41-.89.84-1.41,1.13-3.51,1.95-6.99,3.99-10.78,5.33-2.59.92-5.32,1.5-8.05.51-3.86-1.41-7.78-1.83-11.84-1.16-1.34.22-2.61.56-3.77,1.26-1.93,1.15-3.4,2.81-4.82,4.5-.74.88-.61,2.1.17,3.16.53-.38.66-1,.86-1.55.85-2.35,2.58-3.71,4.89-4.37,3.22-.91,6.36-.75,9.28,1.06,1.56.96,3.2,1.7,5.02,1.91,2.47.29,4.96.33,7.41,0,5.03-.7,9.96-1.8,14.79-3.54,5.41-1.94,9.82-4.85,13.15-9.67,3.27-4.73,6.5-9.5,10.2-13.93,3.35-4.01,6.68-8.02,10.82-11.28,1.71-1.34,3.37-2.64,5.72-2.29.04,0,.08-.09.13-.13ZM210.26,133.5c.22-.68-.17-1.29-.38-1.88-2.63-7.36-5.31-14.71-7.93-22.08-.37-1.04-.92-1.52-2.03-1.51-2.55.04-5.06-.26-7.56-.78-1.4-.29-1.58-.09-1.23,1.32,1.05,4.15,2.01,8.31,3.26,12.41.56,1.84,1.52,3.18,3.15,4.19,4.03,2.51,8,5.11,11.78,7.99.25.19.51.44.94.36ZM271.65,131.15c1.05,1.9,1.99,3.8,2.23,5.96.51,4.59.17,9.1-1.45,13.46-2.9,7.83-7.32,14.72-12.82,20.95-3.68,4.16-7.5,8.2-10.64,12.81-1.59,2.33-3.1,4.7-4.11,7.34-.4,1.06-.69,2.17-.99,3.26-.09.32-.12.77.26.87.91.25,1.86.21,2.79.06.74-.12.78-.82.94-1.4,1.38-5.14,3.99-9.6,7.4-13.66,3.53-4.2,7.09-8.38,10.55-12.65,5.36-6.62,8.37-14.28,10.34-22.42,1-4.15.29-8.11-1.81-11.82-.66-1.16-1.49-2.11-2.68-2.78ZM167.66,44.59c-.25,2.55-.95,4.69-1.96,6.72-.29.59-.2,1.02.34,1.37,2.99,1.95,5.39,4.56,7.98,6.96.5.46,1.06.81,1.72.99,1,.27,1.42.05,1.46-.99.1-2.55.41-5.06,1.13-7.5.29-.99-.14-1.23-1.02-1.45-2.35-.59-4.55-1.55-6.41-3.15-1.01-.86-1.97-1.79-3.24-2.95ZM244.48,217.98c.4,0,.81.04,1.2,0,.53-.06,1.1-.16,1.26-.79.13-.51-.16-.9-.49-1.25-.14-.15-.27-.29-.43-.42-1.8-1.49-3.61-2.98-5.42-4.46-.52-.42-1.07-.83-1.79-.79-2.76.14-5.22,1.05-7.34,2.85-.62.52-.63.95.17,1.33,4.07,1.96,8.26,3.46,12.84,3.54ZM143.08,151.56c0-2.36-.05-2.4-1.83-2.99-1.98-.66-3.86-1.54-5.53-2.8-2.7-2.03-2.61-4.84.14-6.78.47-.33,1.14-.45,1.4-1.2-.89-.3-1.79-.54-2.64-.91-1.2-.52-2.21-.17-3.2.5-1.01.68-1.48,1.68-1.75,2.82-.88,3.64-.4,4.77,2.92,6.43,2.33,1.16,4.71,2.24,7.07,3.34,1.08.5,2.07,1.2,3.42,1.58ZM181.84,54.77c-.73.5-.7.92-.59,1.3.71,2.43,1.35,4.89,2.11,7.3.7,2.22,1.58,4.39,2.29,6.62,1.98,6.17,3.96,12.35,6.3,18.4.43,1.11.86,2.1,2.51,1.98-4.21-11.88-8.4-23.68-12.63-35.6ZM232.62,194c.62,1.83,1.41,3.36,2.26,4.87,1.61,2.85,3.99,5.18,5.38,8.18.37.79,1.47.81,2.25.22.56-.42.83-1.02,1.01-1.68.42-1.55.09-3.04-.37-4.52-.32-1.04-.94-1.66-2.03-1.96-2.75-.77-5.09-2.28-7.12-4.29-.32-.32-.57-.76-1.39-.81ZM185.12,79.45c.11,0,.22-.02.33-.03,0-.26.03-.53,0-.79-.48-4.32-1.14-8.6-2.23-12.81-.2-.77-.47-1.53-.75-2.28-.18-.49-.56-.76-1.1-.61-1.42.39-2.85.66-4.33.7-.53.01-.62.42-.4.86.15.3.34.57.52.86,2.44,3.98,4.97,7.92,6.95,12.17.31.66.68,1.29,1.03,1.94ZM184,18.24c-4.9-.93-9.65-.35-14.44.98,1.5.09,2.3.88,2.65,2.24.14.56.59.73,1.11.54,2.27-.83,4.64-.51,6.96-.52,3.43,0,2.8.43,3.72-3.24ZM249.41,204.89c-.03-1.36-.45-2.6-1.14-3.77-.61-1.02-1.47-1.47-2.65-1.4-1.14.06-1.28.14-.97,1.33.49,1.92.59,3.81-.16,5.68-.36.9.04,1.38.82,1.72,1.28.56,2.51.22,3.35-.92.58-.78.8-1.67.76-2.63ZM254.91,204.67c-.11-1.75-.87-3.25-2.05-4.6-.65-.74-1.41-.92-2.33-.74-1.23.24-1.38.44-.8,1.53,1.11,2.07,1.73,4.18.76,6.49-.28.66.05.99.65,1.18,1.05.34,2.11,0,2.79-1,.57-.84.89-1.78.97-2.87Z"/>
      <path class="cls-1" d="M286.42,130.44c-.78.21-1.13.91-1.59,1.46-1.9,2.24-3.78,4.5-5.68,6.74-.25.29-.45.68-.94.69-.46-.35-.46-.92-.58-1.42-1.66-6.69-6.33-10.08-12.69-11.62-.52-.12-1.05-.19-1.58-.28.75-1.2,2.03-1.71,3.21-2.25,1.62-.74,2.57-1.95,3.38-3.47,1.3-2.43,1.79-5.1,2.69-7.65,2.74-.24,4.72-1.84,6.37-3.82,1.22-1.47,2.51-2.76,4.25-3.56.55-.25,1.03-.61,1.38-1.13.83-1.23.71-1.83-.63-2.51-1.09-.55-2.16-1.15-2.86-2.16-2.17-3.13-3.7-6.54-3.92-10.39-.1-1.71-.44-3.27-1.26-4.79-1.22-2.25-1.65-4.69-.89-7.19.42-1.36.35-2.58-.18-3.89-.75-1.85-.74-3.74.2-5.64,1.16.43,1.62,1.82,2.96,1.88-.09-.9-.7-1.26-1.14-1.75-.5-.55-1.07-1.08-1.14-1.85-.09-.91-.62-1.42-1.31-1.9-.73-.51-1.51-1.03-1.77-2.15.99.06,1.79.55,2.86.21-.77-.77-1.61-.97-2.39-1.26-1.5-.57-3.02-1.11-4.32-2.1-1.56-1.19-2.59-2.7-3.18-4.96,3.15,1.88,6.2,2.96,9.42,3.62-.6-.89-1.58-1.12-2.47-1.45-3.74-1.37-6.91-3.49-9.19-6.83-.97-1.42-1.57-2.93-1.83-5.07,1.48,1.06,2.55,1.84,3.63,2.61,2.47,1.76,5.11,3.27,8.04,4,1.26.31,1.51.8,1.48,1.84-.03,1.15.01,2.36.68,3.3,1.23,1.74,1.95,3.59,2.57,5.64.57,1.86,1.88,3.55,2.72,5.42.59,1.31.74,2.33.27,3.56-.33.88-.68,1.75-1.07,2.6-.82,1.77-1.5,3.6-1.77,5.53-.34,2.39-.57,4.81.97,6.96,0,0,.15.04.15.04l-.05-.14c-1.11-4.79.14-9.1,2.61-13.18.27-.45.49-.95.69-1.44.54-1.36.52-2.65-.15-4.04-.85-1.76-1.2-3.78-2.66-5.24-.04-.04-.06-.12-.08-.18-.16-.59-.72-1.25.44-1.53.56-.13.31-.65.13-.99-.37-.74-1.03-1.22-1.63-1.74-1.1-.94-1.87-2.08-2.08-3.55-.06-.45-.17-.97.29-1.28.4-.27.76.07,1.1.24.65.32,1.21.84,1.95.99.37.14.44.02.26-.3-.32-.88-1.07-1.34-1.78-1.84-1.21-.84-2.44-1.65-3.61-2.54-2.52-1.91-4.82-4.05-6.48-6.79-.4-.66-.89-1.31-.85-2.11.49-.21.77.01,1.02.2,2.13,1.51,4.48,2.68,6.71,4.02,4.56,2.74,8.65,6.12,12.15,10.1,3.72,4.23,3.83,8.99.68,13.61-1.51,2.22-2.88,4.52-3.95,6.98-1.07,2.45-1.45,5-1.26,7.65.06.88.19,1.89,1.24,2.05.94.14,1.28-.79,1.67-1.47.05-.09-.01-.25-.02-.38h0c.58.26,1.03-.12,1.51-.31,1.85-.75,3.75-.91,5.7-.47,1,.23,1.12.5.46,1.29-.9,1.07-2.04,1.73-3.44,1.85-.8.07-1.6.05-2.41.1-2.11.12-3.73,1.34-4.14,3.42-.73,3.78.31,7.15,2.74,10.1.27.33.61.75,1.23.34-.08-1.44-.98-2.58-1.47-3.87-1.52-4.01.25-7.64,4.35-8.81.97-.28,2.04-.43,2.73-1.18,1.43-1.57,3.06-2.85,4.86-3.99.73-.47,1.26-.77,2.15-.6,2.03.38,4.02.2,5.74-1.1.78-.59,1.45-.53,2.16.05-.04,1.57-.44,3.05-1.33,4.34-.88,1.28-1.56,2.63-1.86,4.16-.12.62-.3,1.04-1.12,1.11-.95.07-1.44,1.01-2.01,1.67-1.65,1.93-1.63,1.95-4.14,1.19-.67-.83-1.32-1.66-2-2.48-.64-.77-.78-1.94-1.91-2.55-.71,3.28-.61,6.4-.48,9.53.02.49.15.93.64,1.15.02.38.03.77.05,1.15-.59.73-.31,1.52-.17,2.3.34,1.97.78,3.93,1.02,5.92.29,2.39.66,4.76,1.19,7.11.13.59.18,1.2.77,1.55-.59,1.94-2.08,3.11-3.69,4.05-1.49.87-2.3,2.09-2.93,3.63-1,2.47-1.95,4.98-3.4,7.25ZM290.42,114.73c-.27.18-.55.36-.82.55-2.8,2.04-5.8,1.45-7.66-1.49-.15-.24-.22-.65-.77-.45.06,1.6.71,2.94,1.9,3.98,1.43,1.24,3.16,1.47,4.87.84,1.49-.55,2.64-1.58,2.49-3.43l.1-.09s-.11.07-.11.07ZM275.68,113.84c-.85.05-1.58.6-1.98,1.52-.43,1-.05,1.98.72,2.52,1.57,1.1,1.68,2.78,2.1,4.38.25.95-.15,1.36-.98,1.61-1.86.55-3.71,1.12-5.56,1.7-.48.15-1.2.15-1.01.92.18.74.83.78,1.46.66.39-.07.78-.2,1.16-.3,1.49-.39,2.98-.76,4.46-1.17.89-.25,1.36-.01,1.55.96.24,1.24.62,2.46.95,3.69.32,1.16.63,2.32,1,3.47.23.72.81.84,1.46.61.61-.22.49-.7.37-1.17-.1-.39-.21-.77-.31-1.16-.52-1.94-1-3.89-1.57-5.81-.26-.89-.12-1.43.82-1.65,1.66-.38,3.22-1.27,5.06-.67.94.31,1.84-.23,2.48-.99.42-.5.5-1.07.1-1.66-.79-1.18-2.52-1.57-3.46-.53-1.1,1.21-2.49,1.49-3.91,1.82-1.83.44-2.04.29-2.54-1.5-.42-1.51-.49-2.99-.17-4.55.36-1.72-.52-2.76-2.21-2.7ZM304.42,83.59q-1.2-1.22-2.71-.93c1,.34,1.86.64,2.71.93ZM301.6,83.59c.17.71.62,1.03,1.02,1.35.29.23.65.06.88-.2.34-.39,0-.6-.3-.73-.46-.21-.9-.54-1.6-.42Z"/>
      <path class="cls-1" d="M86.87,223.03c3.72-.6,7.47-.46,11.21-.46,27.52-.03,55.04.05,82.55-.12,32.8-.2,65.61-.13,98.41-.27.6,0,1.2-.08,1.8-.12,1.27,1.05,1.1,2.51,1.07,3.9-.07,3.16.22,2.65-2.72,2.67-62.42.3-124.84.4-187.26.42-.94,0-1.88,0-2.81-.02-2.78-.09-4.12-2.24-3.01-4.82.18-.42.51-.78.76-1.17Z"/>
      <path class="cls-3" d="M279.82,53.39c-.74-.15-1.3-.66-1.95-.99-.35-.17-.7-.51-1.1-.24-.47.31-.36.83-.29,1.28.2,1.46.98,2.6,2.08,3.55.61.52,1.26,1,1.63,1.74.17.34.42.86-.13.99-1.16.27-.6.93-.44,1.53.02.06.04.14.08.18,1.46,1.46,1.81,3.47,2.66,5.24.67,1.39.69,2.68.15,4.04-.2.5-.41.99-.69,1.44-2.47,4.08-3.71,8.4-2.61,13.18l-.1.1c-1.54-2.15-1.31-4.57-.97-6.96.27-1.93.95-3.76,1.77-5.53.39-.85.74-1.72,1.07-2.6.47-1.23.32-2.25-.27-3.56-.85-1.87-2.16-3.56-2.72-5.42-.63-2.05-1.34-3.9-2.57-5.64-.66-.94-.71-2.15-.68-3.3.03-1.04-.22-1.52-1.48-1.84-2.93-.73-5.57-2.24-8.04-4-1.08-.77-2.16-1.55-3.63-2.61.26,2.14.86,3.65,1.83,5.07,2.28,3.34,5.45,5.46,9.19,6.83.9.33,1.87.56,2.47,1.45-3.22-.65-6.27-1.73-9.42-3.62.59,2.26,1.62,3.77,3.18,4.96,1.3.99,2.81,1.53,4.32,2.1.78.29,1.62.49,2.39,1.26-1.07.34-1.87-.16-2.86-.21.26,1.12,1.03,1.63,1.77,2.15.69.48,1.22.98,1.31,1.9.07.77.64,1.3,1.14,1.85.44.48,1.06.85,1.14,1.75-1.33-.07-1.8-1.46-2.96-1.88-.94,1.9-.96,3.78-.2,5.64.53,1.31.6,2.53.18,3.89-.76,2.5-.33,4.94.89,7.19.83,1.52,1.16,3.08,1.26,4.79.22,3.85,1.76,7.26,3.92,10.39.7,1.01,1.77,1.6,2.86,2.16,1.34.68,1.46,1.28.63,2.51-.35.52-.82.88-1.38,1.13-1.74.8-3.03,2.1-4.25,3.56-1.65,1.98-3.63,3.58-6.37,3.82-.03-.1-.02-.19.05-.28.62-1.69,2.33-2.33,3.74-3.64-1.73-.11-3.19-.25-4.03-1.78.65-.39,1.46-.03,1.93-.65-.52-1.1-1.85-1.58-2.11-3.02,1.83.38,3.46,1,5.27.95-.06-.62-.46-.91-.75-1.25-1.28-1.5-2.16-3.22-2.75-5.09-.58-1.86-.91-3.77-1.23-5.69-.4-2.45-.9-4.85-2.11-7.08-.83-1.54-1.35-3.22-1.21-5.01.07-.94-.2-1.51-1.22-1.68-1.07-.17-1.97-.82-2.93-1.28-.39-.18-.67-.6-.46-.99.28-.51.7-.13,1.01.05,2.1,1.23,4.3,1.35,6.57.58.44-.15.9-.31,1.18-.72.33-.48.37-1.01.02-1.5-.3-.42-.71-.25-1.09-.14-.45.13-.89.3-1.35.4-2.33.49-4.64.71-6.76-.72-.02-.15-.05-.31-.07-.46.46.08.92.15,1.38.24,2.15.41,4.27.15,6.34-.45.96-.28,1.26-.95.92-1.85-.36-.95-1.02-.37-1.5-.2-2.68.94-5.38.92-8.11.29-.26-.18-.32-.45-.38-.74,3.03.79,5.92.2,8.76-.9.48-.19,1.16-.27,1.07-.96-.09-.68-.73-.93-1.32-1.05-.73-.14-1.44.13-2.15.29-2.62.6-5.23.86-7.8-.22-.18-.26-.35-.53-.53-.79.39.07.78.15,1.18.2,2.26.31,4.51.28,6.73-.32.37-.1.95-.31.67-.75-.57-.88-1.27-1.71-2.04-2.43-.5-.47-1.13.07-1.69.19-2.47.56-4.94,1.09-7.46.35-.14-.24-.27-.49-.41-.73,2.69.12,5.4.39,8.16-.84-.9-.82-1.98-.94-2.72-1.57-.99-.84-2.01-.79-3.18-.47-1.89.52-3.82.6-5.72,0-.14-.27-.28-.54-.42-.82,1.54-.06,3.07-.08,4.6-.21.63-.05,1.53-.07,1.71-.78.2-.76-.61-1.26-1.03-1.84-.28-.37-.68-.34-1.1-.27-.99.17-1.98.37-2.97.45-1.32.11-2.67.39-3.92-.33-.03-.22-.06-.45-.08-.67,1.92-.13,3.86.17,5.76-.33.7-.19,1.28-.34,1.02-1.3-.34-1.26-.76-1.78-1.64-1.48-2.26.77-4.58.69-6.91.67-.46,0-.94-.04-1.31.32-.23.03-.47.06-.7.1-.21-.27-.49-.4-.81-.47-.07-.64-.7-.77-1.06-1.14,2.86.13,5.72.53,8.59,0,.69-.13,1.44-.06,2.22-.79-.26-.14-.43-.25-.62-.33-1.78-.81-3.46-1.75-4.84-3.16-.47-.48-1.06-.49-1.67-.49-2.61,0-5.21-.03-7.82-.04-.13-.23-.26-.46-.39-.7,1.79-.4,3.6-.06,5.4-.19.84-.06,1.75.13,2.54-.59-.41-.96-1.29-1.3-2.14-1.66-1.1-.47-2.3-.78-3.23-1.58-.86-.73-1.84-.95-2.95-1.03-3.93-.28-7.83-.82-11.62-1.94-.27-.22-.53-.45-.8-.67.53-.19,1.05-.04,1.57.06,3.6.71,7.24.95,10.98,1.19-.79-1.54-1.83-2.22-3.61-2.32-4.12-.22-8.26-.35-12.28-1.49-.21-.38-.43-.76-.64-1.13.68-.21,1.32.07,1.97.19,3.48.65,6.97,1.28,10.53,1.27.42,0,.95.21,1.23-.37-.52-1.06-1.29-1.6-2.53-1.57-5.06.13-9.99-.59-14.7-2.53-.44-.18-.89-.37-1.22.2-.2.01-.4.02-.59.03-.08-.44-.46-.63-.75-.9-.08-.4-.16-.8-.24-1.19.7-.08,1.29.3,1.92.51,4.59,1.54,9.3,2.42,14.13,2.66.65.03,1.7.45,1.87-.52.17-.97-.86-.96-1.56-1.13-5.61-1.32-11.05-3.1-16.1-5.97-1.73-.98-3.63-1.61-5.49-2.14-.46.5-.22,1.01-.38,1.44-.4-.11-.8-.22-1.2-.33-.26-.07-.52-.14-.77-.2-1.49-.98-3.07-1.03-4.7-.41-.38.01-.76.03-1.14.04-1.47.63-2.99,1-4.6.78-.39-.01-.77-.02-1.16-.03-.47-.62-1.29-.63-1.85-1.08-.83-.67-2.03-1.09-1.83-2.51.37.04.58.3.81.54,1.81,1.94,4.06,2.21,6.47,1.63,3.31-.8,4.58-5.09,2.29-7.63-.91-1.01-2.1-1.4-3.45-1.16-1.14.21-1.96.83-2.3,1.98-.32,1.06,0,2.29.7,2.75.76.49,1.45.26,2.44-.86.18-.21.34-.42.65-.31.38.14.44.48.43.82,0,.42-.23.76-.5,1.07-1.35,1.47-4.42.89-5.07-.99-.67-1.95.34-5.06,2.85-5.61,1.83-.39,3.46-.08,5.05.69,3.4,1.65,6.39,3.91,9.13,6.49,4.81,4.53,10.49,7.32,16.94,8.64,4.33.88,8.72,1.39,13.06,2.13,5.6.96,11.14,2.25,16.66,3.6,3.98.97,7.75,2.56,11.24,4.74,1.87,1.17,3.76,2.32,5.61,3.52,5.29,3.41,10.02,7.37,13.22,12.93,1.67,2.9,2.82,5.91,2.74,9.31-.02.8.02,1.61.08,2.41.05.81.52,1.22,1.33,1.15,1-.09,1.99-.23,2.99-.35.08.09.08.19,0,.28-.68.46-1.5.53-2.25.78-2.58.88-4.88,2.13-6.26,4.63-.4.72-1.01,1.2-1.71,1.63-.76.47-1.54.99-1.7,2.08,1.14.25,2.14-.8,3.51-.12-1.17.52-2.11.83-2.93,1.35-.78.5-1.88.89-1.59,2.21.01.13.08.29.02.38-.39.68-.73,1.61-1.67,1.47-1.05-.16-1.17-1.16-1.24-2.05-.19-2.65.19-5.21,1.26-7.65,1.08-2.46,2.44-4.76,3.95-6.98,3.15-4.62,3.04-9.38-.68-13.61-3.5-3.98-7.59-7.36-12.15-10.1-2.23-1.34-4.58-2.51-6.71-4.02-.26-.18-.54-.41-1.02-.2-.04.81.45,1.45.85,2.11,1.66,2.74,3.96,4.87,6.48,6.79,1.17.89,2.41,1.69,3.61,2.54.71.5,1.46.96,1.78,1.84-.09.1-.18.2-.26.3ZM272.31,49.2c.08.1.15.22.24.3.14.11.36.3.48.13.13-.18-.1-.32-.27-.4-.12-.05-.25-.08-.37-.12-2.45-2.01-4.58-4.28-5.97-7.17-1.03-2.15-2.72-3.43-5.05-3.86-.78-.15-1.55-.79-2.64-.15,3.24,5.46,8.34,8.45,13.57,11.28ZM237.16,33.35c.95,1.91,2.28,3.08,4.15,3.75,5.87,2.09,11.88,3.71,17.79,5.66.3.1.63.25.96-.02.06-.63-.5-.89-.83-1.28-.84-.97-1.67-1.97-1.99-3.22-.28-1.08-.94-1.54-1.92-1.76-.78-.18-1.56-.36-2.34-.56-4.42-1.1-8.95-1.61-13.43-2.41-.7-.13-1.4-.52-2.37-.16ZM281.85,104.45s.22,0,.47-.08c.46-.14.89-.36,1.03-.87.18-.61-.33-.82-.71-1.06-.81-.49-1.54-1.08-2.19-1.76-2.49-2.62-4.04-5.81-4.35-9.31-.28-3.18-.86-6.17-2.21-9.05-.46-.98-.42-2.09-.47-3.17-.04-.68-.36-.92-1.06-.81-1.5.23-2.07.9-1.9,2.47.15,1.42.73,2.72,1.43,3.95,1,1.78,1.68,3.64,1.85,5.69.35,4.07,1.63,7.83,3.62,11.4.97,1.75,2.32,2.49,4.49,2.61ZM259.68,52.84c.09.02-.29-.02-.48.3-.22.36-.12.8.08,1.15,1.77,3.04,3.76,5.89,7.11,7.4,1.37.62,2.5,1.5,3.48,2.64.78.91,1.65,1.75,2.54,2.57.35.32.85.92,1.35.36.44-.49.64-1.2.09-1.83-.17-.2-.39-.37-.59-.54-.93-.8-1.68-1.74-2.08-2.9-.24-.69-.68-1.13-1.32-1.41-2.6-1.12-4.34-3.06-5.38-5.66-.24-.6-.61-1.03-1.25-1.19-1.04-.26-2.07-.52-3.54-.89ZM241.78,38.92c-.15.45.03.66.2.84,2.1,2.25,4.47,3.94,7.71,4.2,2.6.2,5.09.93,7.46,2.12,1.08.55,2.32.79,3.48,1.17.23-.51.05-.9,0-1.29-.3-1.83-.32-1.78-2.17-2.28-2.12-.57-4.22-1.26-6.34-1.86-3.44-.98-6.89-1.93-10.33-2.9ZM250.05,45.24c2.19,4.01,10.46,7.63,13.34,6.85-1.09-2.31-1.83-3.4-2.95-3.84-3.28-1.29-6.64-2.3-10.39-3.01Z"/>
      <path class="cls-1" d="M198.83,25.83c.39.01.77.02,1.16.03-1,2.4-2,4.81-3.01,7.21-2.88,6.83-5.77,13.67-8.64,20.5-.31.73-.77,1.44-.4,2.29.59,1.33.93,2.78,1.77,4.08.14-.22.27-.37.34-.54,3.32-7.66,6.66-15.32,9.93-23,1.59-3.75,3.3-7.45,4.61-11.32.38-.01.76-.03,1.14-.04-.33,1.73-1.13,3.28-1.81,4.87-4.33,10.14-8.7,20.26-13.04,30.4-.25.6-.73,1.19-.45,1.9.61,1.52,1.07,3.12,1.93,4.54.45-.22.46-.59.58-.87,5.32-12.48,10.63-24.96,15.96-37.44.44-1.03.7-2.16,1.53-2.99.26.07.52.14.77.2-2.14,5.63-4.71,11.07-7.04,16.62-3.44,8.2-6.97,16.36-10.45,24.54-.31.72-.82,1.44-.49,2.29.55,1.37,1.13,2.73,1.71,4.13.68-.46.72-1.04.92-1.51,5.8-13.44,11.58-26.89,17.38-40.34.31-.72.48-1.54,1.19-2.04.16.18.31.37.47.55-.1.32-.17.65-.3.95-2.65,6.2-5.29,12.41-7.96,18.6-3.49,8.09-7.02,16.18-10.51,24.27-.25.58-.73,1.15-.32,1.88.52.92.69,2.03,1.44,2.84,0,.53.07,1.26.59,1.3.74.05.69-.76.81-1.3.22-.41.46-.81.64-1.23,2.37-5.6,4.73-11.21,7.09-16.81,3.95-9.36,7.91-18.72,11.87-28.07.29.26.66.46.75.9-3.6,8.54-7.2,17.09-10.81,25.62-2.75,6.5-5.62,12.96-8.12,19.57-1.75,2.92-1.09,5.7.6,8.81.79-2.02,1.51-3.73,2.14-5.47.91-2.52.89-2.53-1.63-3.01-.13-.02-.25-.09-.38-.14.33,0,.67,0,1,0,2.68.03,2.21.21,3.16-2.08,5.17-12.54,10.34-25.08,15.53-37.6.48-1.15.71-2.43,1.57-3.41.27.12.54.23.81,0h.03s-.08,0-.08,0c-.26.76-.47,1.53-.77,2.26-5.3,12.9-10.61,25.8-15.9,38.7-.27.67-.71,1.3-.6,2.09-1.04,2.32-2.02,4.66-3.13,6.94-.96,1.98-1.32,3.9-.07,5.88.1.16.1.39.15.58.32.64.42,1.38,1.04,1.99.57-.92.99-1.86,1.24-2.87,1.74-4.18,3.48-8.35,5.22-12.53,3.62-8.81,7.24-17.63,10.88-26.43,1.78-4.31,3.32-8.72,5.39-12.9.15.23.37.34.64.35-.22.63-.41,1.26-.66,1.88-4.97,12.33-9.95,24.65-14.92,36.98-1.77,3.8-3.1,7.78-4.55,11.7-.73.4-.83,1.18-1.11,1.84-.55,1.28-1.08,2.58-1.62,3.87-1.62.23-2.38-.62-2.93-2.07-3.14-8.12-6.35-16.21-9.53-24.31-2.06-5.23-4.12-10.47-6.18-15.7-.39-.99-.82-1.98-.26-3.33-1.7.59-2.5,1.88-3.64,2.7-1.14.82-1.6,2.22-2.65,3.54-.39-2.11.31-3.64.82-5.2.16-.49.66-.62,1.06-.86.56-.33,1.26-.57,1.2-1.43l-.02.02c.27,0,.4-.16.42-.42l-.02.02c.26-.02.39-.17.42-.42l-.02.02c.39-.15.51-.44.42-.83l-.02.03c.28,0,.39-.17.42-.42v.02c.38-.15.46-.45.4-.82h0c1.82-1.96,2.64-4.41,3.17-6.95.63-3.01.47-6.1.77-9.15.07-.71-.14-1.45-.24-2.18-.07-.48-.26-.96-.73-1.12-1.8-.62-3.44-1.7-5.38-1.92h.01c.02-.28-.11-.41-.4-.39l-.02-.02c.03-.29-.1-.42-.38-.39l-.02-.02c.15-.41-.02-.64-.39-.79h0c.23-.51.64-.6,1.15-.56,1.58.13,3.15.26,4.65.84.67.26,1.32.62,2.07.6,1.14,1.33,1.92,2.73,1.02,4.55-.26.53.19,1,.41,1.48,1.34,2.93,1.84,5.94.76,9.09-.51,1.5-1.23,2.82-2.55,3.73-1.1.76-1.58,1.74-1.45,3.08.04.46.07,1.02-.15,1.38-1.32,2.1-.33,3.91.75,5.97,2.34-4.63,4-9.37,6.02-13.96,2.02-4.58,3.91-9.21,5.86-13.81Z"/>
      <path class="cls-1" d="M108,130.68c.04.06.06.14.11.16,2.43,1.25,2.98,3.28,2.67,5.85-.2,1.65-.04,3.35.01,5.02.02.79-.19,1.33-.85,1.87-1.55,1.25-1.69,3.07-.42,4.59.77.92,1.69,1.72,2.54,2.57.95.95,1.84,1.95,2.56,3.09.28.45.7.98.66,1.43-.16,1.85,1.03,2.99,2.09,4.16.82.91,1.47,1.89,1.94,3.02,1.49,3.6,2.84,7.23,3.26,11.15.27,2.56-.08,5.08-.35,7.61-.11.99-.6,1.73-1.42,2.31-1.43,1.01-2.65,2.25-3.75,3.62-1.84,2.3-2.47,4.99-2.62,7.86-.09,1.84-.16,1.85-2.03,1.86-1.94.01-3.88,0-5.82-.03-1.67-.03-1.67-.04-1.93-1.79-.03-.2-.11-.38-.16-.57.07-.57.15-1.13.22-1.7.16-.21.16-.44.06-.68.76-4.34,2.57-8.1,5.92-11.09,1.85-1.65,3.55-3.44,4.48-5.83,1.06-2.73.98-5.56.34-8.29-1.03-4.38-2.79-8.49-5.3-12.26-1.08-1.63-2.26-3.15-3.75-4.41-1.12-.94-1.47-2.09-1.43-3.54.14-4.95.18-9.89.26-14.84.04-2.02.51-2.28,2.41-1.37.12.06.21.16.32.24Z"/>
      <path class="cls-1" d="M298.52,69.72c-1,.12-1.99.26-2.99.35-.81.07-1.27-.34-1.33-1.15-.05-.8-.09-1.61-.08-2.41.07-3.4-1.07-6.41-2.74-9.31-3.2-5.56-7.94-9.52-13.22-12.93-1.86-1.2-3.74-2.35-5.61-3.52-3.5-2.18-7.27-3.77-11.24-4.74-5.52-1.35-11.07-2.64-16.66-3.6-4.35-.74-8.73-1.24-13.06-2.13-6.45-1.32-12.13-4.11-16.94-8.64-2.74-2.59-5.73-4.84-9.13-6.49-1.59-.77-3.22-1.09-5.05-.69-2.51.54-3.52,3.66-2.85,5.61.65,1.88,3.73,2.45,5.07.99.28-.3.49-.64.5-1.07,0-.34-.05-.68-.43-.82-.31-.11-.47.1-.65.31-.99,1.12-1.68,1.35-2.44.86-.7-.46-1.02-1.69-.7-2.75.35-1.15,1.16-1.77,2.3-1.98,1.35-.25,2.54.14,3.45,1.16,2.29,2.54,1.02,6.83-2.29,7.63-2.41.58-4.66.31-6.47-1.63-.23-.24-.44-.51-.81-.54,0,0,0,0,0,0-.6-1.88-.86-3.8-.89-5.77,0-.1.03-.19.09-.27.23-.14.29-.34.22-.59,1.49-3.27,4.76-4.84,8.45-4.07,3.57.75,6.5,2.7,9.23,4.99,3.38,2.84,6.62,5.83,10.37,8.23,4.04,2.58,8.37,4.2,13.11,4.62,6.88.6,13.6,2.13,20.35,3.43,1.64.32,3.26.74,4.89,1.08,3.48.72,6.83,1.79,10.06,3.32,6.12,2.91,12.03,6.09,17.16,10.63,3.89,3.44,7.36,7.17,9.67,11.87.74,1.51,1.23,3.11,1.52,4.77.32,1.85.16,3.6-.86,5.22Z"/>
      <path class="cls-1" d="M253.47,193.97c-1.16-.11-1.94.81-2.96,1.09-.43.12-.91.47-1.3.03-.3-.33-.08-.77.03-1.15.75-2.73,1.91-5.27,3.54-7.61,2.95-4.24,6.32-8.13,9.74-11.99,6-6.78,10.8-14.29,13.68-22.95.89-2.68,1.37-5.42,1.73-8.2.08-.6.04-1.21.46-1.71,1.2-1.43,2.39-2.86,3.59-4.3.86,1.93.49,3.96.27,5.91-1.25,11.37-5.8,21.33-13.3,29.9-4.13,4.73-8.15,9.56-12.24,14.32-1.14,1.32-2.09,2.77-2.84,4.35-.34.72-.72,1.45-.4,2.3Z"/>
      <path class="cls-1" d="M188.86,18.08c-6.05-2.13-12.18-2.03-18.32-.54-1.92.47-3.69.28-5.46-.44,1.11-.86.7-2.03.81-3.33-1.53.41-2.98.78-3.67-.97-.41-1.05.08-2,1.4-2.94-.52-1.08-1.09-2.14-1.56-3.25-.46-1.08-.2-1.6.89-1.99.37-.13.79-.14,1.16-.29,1.47-.6,1.87-.44,2.16,1.06.23,1.18.32,2.38.47,3.54.6.34.93-.77,1.45-.25.56.56,1.15,1.16,1.49,1.85.56,1.12-.13,1.97-1.94,2.62.03.8.55,1.34,1.06,1.85.65.65,1.53.6,2.13-.03.67-.7.92-2.75.37-3.65-.27-.45-.42-.87-.13-1.29.33-.48.83-.63,1.41-.37.54.25.65.75.42,1.17-.31.58-.46,1.01.01,1.61.67.85,1.32,1.71,2.39,2.06.67.22,1.2-.12,1.49-.72.37-.78.7-1.59.73-2.49-.54-.41-1.01.1-1.51.12-1.37.03-2.18-.66-2.16-2.01,0-.53.2-1.05.26-1.58q.28-2.28,2.37-1.01c.23-1.27-.32-2.37-.42-3.5-.04-.53-.26-1.05-.28-1.57-.04-1.02.44-1.56,1.43-1.41.65.1,1.14-.06,1.72-.21,1.3-.34,1.9.1,1.92,1.5.01,1.27-.16,2.54-.24,3.8-.02.4,0,.8,0,1.19.14.04.27.13.36.1.6-.22.79-1.28,1.59-.99.82.29.18,1.22.54,1.78.17.27.24.63.29.95.31,1.97-.36,2.69-2.4,2.59-.32-.02-.65-.05-1.01-.08-.06.27-.17.46-.13.62.29,1.24.52,2.76,2.04,2.86,1.38.09,1.77-1.43,2.49-2.36.41-.53-.09-.85-.16-1.27-.08-.44.04-.81.46-1,.47-.22.92-.17,1.27.24.31.36.31.77,0,1.08-1.09,1.06-.55,2.27-.25,3.37.33,1.21,1.29,1.37,2.08.43.34-.4.57-.9.81-1.3-.15-.43-.49-.53-.74-.73-1.04-.83-1.14-1.46-.43-2.56.29-.44.71-.78.85-1.34.12-.49.43-.4.71-.11.58.6.65.03.66-.33.01-.6-.09-1.2-.12-1.8-.04-.7.09-1.39.76-1.73.56-.28,1.2-.21,1.71.19.68.54.64,1.21.35,1.98-1.31,3.58-2.56,7.18-3.59,10.85Z"/>
      <path class="cls-1" d="M157.81,41.93c1.08,1,2.17,1.99,3.23,3.02.85.82,1.3,1.86,1.45,3.03.21,1.69-.72,3.17-2.38,3.75-.75.26-1.55.49-2.34.53-3.42.18-6.02,2.06-8.53,4.08-.94.75-1.75,1.66-2.67,2.43-3.62,3.05-6.01,6.76-6.61,11.56-.54,4.32-2.6,8.14-4.28,12.07-.89,2.08-1.47,4.3-2.78,6.19-.05-1.94-.07-3.88-.15-5.82-.08-1.83.46-3.44,1.67-4.8.8-.9,1.21-1.82.93-3.09-.34-1.52.16-2.92,1.1-4.14.46-.59.87-1.16.83-1.97-.1-1.97.78-3.49,2.3-4.65.62-.47,1.01-.96.94-1.83-.16-2.06.98-3.55,2.39-4.85,1.09-1.01,2.39-1.71,3.77-2.24,1.04-.4,1.7-.96,1.52-2.23-.21-1.52.68-2.52,1.82-3.34,1.38-.99,2.97-1.53,4.59-1.95,2.83-.73,3.22-1.23,3.21-4.16,0-.53,0-1.07,0-1.6Z"/>
      <path class="cls-1" d="M159.87,30.72c2.1-.24,4.21-.48,6.31-.72v-.47c-.74,0-1.47,0-2.2,0-.8,0-1.6-.04-2.4.13-.42.09-.98.34-1.19-.28-.18-.53.24-.86.61-1.16.15-.13.32-.24.49-.35,4.67-3,9.86-4.38,15.32-4.86.2-.02.4,0,.6.02.12.02.23.11.48.23-.47,1.04-1.35,1.62-2.29,2.07-1.44.7-2.9,1.37-4.4,1.94-1.35.51-2.25,1.37-2.73,2.73-.44,1.26-.98,2.49-1.41,3.76-.41,1.19-1.09,2.07-2.21,2.72-2.42,1.4-2.89,3-1.77,5.54.98,2.22,1.1,3.22.5,5.6-.35-1.63-.86-2.84-1.93-3.67-2.19-1.69-4.05-3.64-5.25-6.17-.01-.21-.02-.42-.03-.63.19-.19.18-.36-.04-.52-.06-.54.01-1.06.19-1.57.11-.07.13-.16.05-.27.45-1.88,1.92-2.95,3.29-4.09Z"/>
      <path class="cls-1" d="M285.6,82.56c-.29-1.32.81-1.71,1.59-2.21.81-.52,1.76-.82,2.93-1.35-1.37-.68-2.37.37-3.51.12.16-1.09.94-1.61,1.7-2.08.7-.43,1.31-.92,1.71-1.63,1.39-2.5,3.68-3.74,6.26-4.63.75-.26,1.57-.33,2.25-.78.37.49.88.47,1.43.47,1.78,0,3.4.54,4.79,1.67.68.55,1.49.85,2.26,1.23,2.18,1.06,2.68,3.65,1.13,5.66-.09-.18-.2-.35-.27-.54-.71-1.75-.73-1.78-2.24-.58-1.83,1.46-3.9,1.6-6.09,1.27-1.48-.22-2.8-.87-4.12-1.53-1.67-.84-3.36-.95-5.35.06,1.29.65,2.47.5,3.51.86,1.12.39,2.2.82,3.09,1.68-.85.84-1.73.66-2.58.49-1.52-.3-3.06-.44-4.59-.22-1.52.21-3.05.54-3.92,2.05h0Z"/>
      <path class="cls-1" d="M117.04,128.85c-.46,1.45-.95,2.89-1.39,4.35-.53,1.75-.56,1.79-2.08.91-1.14-.66-2.25-1.39-3.38-2.09-.38-.24-.72-.62-1.25-.46-.63-.16-.86-.86-1.37-1.1-3-1.45-3.35-4-3-6.89.09-.78-.12-1.59.2-2.57,4.3,2.37,8.08,5.45,12.26,7.87Z"/>
      <path class="cls-3" d="M285.59,82.56c.87-1.51,2.39-1.84,3.92-2.05,1.53-.21,3.07-.08,4.59.22.85.17,1.72.35,2.58-.49-.9-.86-1.97-1.29-3.09-1.68-1.04-.36-2.22-.21-3.51-.86,1.99-1.01,3.67-.9,5.35-.06,1.32.66,2.64,1.31,4.12,1.53,2.19.33,4.26.18,6.09-1.27,1.51-1.2,1.53-1.17,2.24.58.07.19.18.36.27.54-.04.21-.16.33-.38.35-.7-.58-1.38-.65-2.16-.05-1.71,1.31-3.7,1.49-5.74,1.1-.88-.17-1.41.13-2.15.6-1.8,1.14-3.42,2.42-4.86,3.99-.69.76-1.76.9-2.73,1.18-4.09,1.17-5.86,4.8-4.35,8.81.49,1.29,1.39,2.43,1.47,3.87-.62.41-.96,0-1.23-.34-2.44-2.95-3.47-6.32-2.74-10.1.4-2.08,2.03-3.3,4.14-3.42.8-.04,1.61-.03,2.41-.1,1.4-.12,2.54-.78,3.44-1.85.66-.79.55-1.06-.46-1.29-1.95-.44-3.85-.28-5.7.47-.48.2-.93.57-1.51.32Z"/>
      <path class="cls-1" d="M260.31,206.34c-.54.38-1.07.79-1.62,1.15-.73.47-1.5.5-2.29.12-.46-.22-.69-.52-.67-1.09q.17-4.12-1.97-7.8c.64-.88,2-.81,2.51-1.86,3.9,2.05,5.19,5.07,4.04,9.48Z"/>
      <path class="cls-1" d="M255.89,196.2c-.8.32-1.6.66-2.41.95-5.12,1.85-10.18,1.93-15.14-.52-1.18-.58-2.29-1.31-3.29-2.56.97-.14,1.4.42,1.88.74,4.15,2.81,8.58,3.06,13.2,1.48,1.31-.45,2.66-.94,3.34-2.33.25-.04.51-.09.76-.13,1.84-.23,2.35.5,1.66,2.36Z"/>
      <path class="cls-1" d="M157.34,17.73c-.65-.24-1.3-.23-1.93.08-1.14-1.72-2.29-3.43-3.4-5.16-.51-.8-.28-1.37.64-1.87.86-.47,1.26.08,1.51.73.38.98.65,2.01.97,3.02.13,0,.3.05.37,0,1.2-1.08,1.43-1.11,2.27-.34,1.03.95,1.17,2.03.36,2.97-.21.24-.53.39-.79.57Z"/>
      <path class="cls-3" d="M293.56,97.49c-.49-.23-.62-.67-.64-1.15-.13-3.13-.24-6.25.48-9.53,1.13.61,1.27,1.78,1.91,2.55.68.82,1.33,1.65,2,2.48-1.61,1.64-2.96,3.46-3.74,5.65Z"/>
      <path class="cls-3" d="M296.43,115.51c-.6-.35-.64-.96-.77-1.55-.53-2.35-.9-4.72-1.19-7.11-.24-1.98-.68-3.94-1.02-5.92-.13-.78-.41-1.57.17-2.3.81,1.77.93,3.71,1.28,5.58.6,3.13,1.12,6.28,1.65,9.43.1.62.52,1.28-.11,1.87Z"/>
      <path class="cls-1" d="M161.37,15c-.39.01-.78.03-1.17.04-.39-.15-.68-.42-.75-.82-.12-.63.29-.99.82-1.14.5-.14.88.15,1.11.58.24.44.04.89-.01,1.34Z"/>
      <path class="cls-3" d="M194.26,16.47c.03,1.96.29,3.89.89,5.77-.37.02-.63-.15-.78-.48-.74-1.74-1.17-3.5-.12-5.28Z"/>
      <path class="cls-3" d="M104.75,192.07c.1.24.1.47-.06.68-.11-.24-.09-.47.06-.68Z"/>
      <path class="cls-3" d="M236.93,21.33h-.17s-.09-.14-.08-.14c.14-.04.22,0,.26.14Z"/>
      <path class="cls-3" d="M156.58,34.81c.07.11.05.2-.05.27-.08-.11-.07-.2.05-.27Z"/>
      <path class="cls-3" d="M156.34,36.65c.21.16.23.33.04.52-.01-.17-.03-.35-.04-.52Z"/>
      <path class="cls-3" d="M194.57,15.62c.07.25.01.45-.22.59-.08-.25,0-.44.22-.59Z"/>
      <path class="cls-1" d="M127.54,201c.44-.64,1-.72,1.48-.93,4.22-1.87,8.3-3.99,12.08-6.69,4.14-2.96,8.41-5.74,12.25-9.1,1.98-1.74,3.69-3.68,5.07-5.93,2.67-4.35,4.9-8.93,6.9-13.62,2.72-6.41,5.37-12.84,7.34-19.56,1.22-4.17,3.01-8.17,4.54-12.24.45-1.19,1.27-2.03,2.4-2.58,3.15-1.54,6.41-2.66,9.97-2.85,1.8-.1,3.59-.41,5.38-.66,1.59-.22,3,.03,4.36.99,4.06,2.84,8.11,5.69,12.07,8.68,2.43,1.84,3.87,4.18,4.53,7.11,2.02,8.96,4.44,17.81,7.02,26.62,3.18,10.87,6.65,21.65,12.16,31.64.94,1.71,1.97,3.34,3.07,4.95.36.54.9.99.95,1.81-.81.37-1.7.28-2.53.38-2.14.25-4.11.96-5.61,2.46-2.87,2.88-5.99,3.18-9.52,1.45-1.23-.6-2.56-.84-3.88-.24-.95.43-1.19-.1-1.29-.87-.03-.27-.07-.53-.08-.8-.31-5.89-.67-11.77-.91-17.66-.39-9.71-.78-19.41-1.61-29.09-.14-1.63-.36-3.26-.79-4.89-.04.99-.11,1.99-.13,2.98-.12,9.18-.26,18.36-.35,27.54-.05,5.16-.36,10.31-.32,15.48.02,3.09.06,6.16.69,9.2.16.77.16,1.57.23,2.29-.66.32-1.02-.11-1.45-.21-1.8-.42-3.57-.54-5.27.42-.29.16-.59.41-.9.43-3.39.29-6.88.96-10.08-.45-2.86-1.26-5.59-1.64-8.54-.65-.69.23-1.43.36-2.15.48-.53.09-1.07.09-1.57-.19-.3-.17-.59-.39-.57-.76.02-.37.32-.6.66-.67.59-.11,1.19-.17,1.78-.22,1.33-.11,2.68-.04,3.99-.4.88-.24,1.32-.72,1.43-1.67,1.03-9.05,2.69-18.01,4.06-27.01,1.42-9.27,2.87-18.53,4.31-27.79.42-2.71.83-5.43,1.36-8.12.21-1.06.01-1.74-.82-2.44-3.61-3.01-7.38-5.78-11.27-8.4-1.01-.69-1.12-.66-1.82.53-2.6,4.46-4.83,9.12-6.99,13.8-3.36,7.27-5.43,14.98-7.62,22.65-1.46,5.09-3.02,10.14-4.84,15.12-.86,2.35-2.33,4.37-3.64,6.47-1.84,2.96-3.94,5.75-6.1,8.48-.7.88-1.45,1.71-2.38,2.39-1.31-2.12-1.55-2.3-3.91-2.31-2.82-.02-5.62-.15-8.33-1.03-.5-.16-1.05-.23-1.58-.27-.96-.06-1.71.3-2.09,1.23-.36.89.04,1.56.69,2.12.41.35.86.64,1.28.97.4.33.91.61.76,1.37-1.45.13-2.8-.35-3.96-1.07-2.78-1.75-5.83-2.61-9.01-3.23-1.08-.21-2.19-.48-3.24-1.65,1.28-.06,2.22.19,3.16.32.7.1,1.57.46,2-.36.5-.94-.15-1.67-.82-2.26-.6-.52-1.28-.94-2.01-1.47Z"/>
      <path class="cls-1" d="M264.41,74.13c2.13,1.43,4.43,1.21,6.76.72.46-.1.9-.27,1.35-.4.38-.11.79-.28,1.09.14.34.49.31,1.01-.02,1.5-.28.41-.74.57-1.18.72-2.27.77-4.47.65-6.57-.58-.32-.18-.73-.57-1.01-.05-.21.39.07.8.46.99.96.46,1.86,1.1,2.93,1.28,1.03.17,1.3.74,1.22,1.68-.14,1.8.37,3.48,1.21,5.01,1.2,2.23,1.71,4.63,2.11,7.08.31,1.91.64,3.83,1.23,5.69.59,1.87,1.47,3.59,2.75,5.09.29.34.69.63.75,1.25-1.81.06-3.44-.56-5.27-.95.26,1.44,1.59,1.92,2.11,3.02-.47.62-1.27.26-1.93.65.84,1.53,2.3,1.67,4.03,1.78-1.41,1.31-3.12,1.95-3.74,3.64-1.5-.56-1.82-1.87-1.94-3.23-.07-.79.07-1.6.13-2.4.1-1.24-.23-3.92-.62-4.8-.49.32-.56.88-.75,1.36-1.21,3.19-2.4,6.38-3.6,9.58-1.74,4.63-3.47,9.25-5.21,13.88-.41.15-.81.3-1.22.45.05-1.09.57-2.05.94-3.04,3.07-8.27,6.17-16.53,9.25-24.79.23-.62.66-1.24.31-1.9-.66-1.25-1.23-2.53-1.69-4.32-.84,2.35-1.47,4.27-2.2,6.15-3.2,8.23-6.43,16.44-9.63,24.66-6.39,16.38-12.77,32.77-19.17,49.14-.47,1.2-.98,2.34-.25,3.62.61,1.05.67,2.39,1.69,3.42.31-.72.55-1.27.77-1.82,1.83-4.74,3.66-9.48,5.48-14.23,3.08-8.04,6.16-16.08,9.24-24.13.67.43.51,1.07.43,1.69-.05.19-.09.39-.16.58-4.76,12.43-9.48,24.87-14.34,37.26-.73,1.85-.89,3.41.14,5.08,0,.9-.17,2.06-1.01,2.18-.87.13-.9-1.12-1.18-1.81-4.67-11.53-9.34-23.06-13.98-34.61-4.14-10.3-8.25-20.62-12.38-30.93-1.24-3.1-2.49-6.21-3.73-9.31-.24-.61-.64-1.18-.49-1.9.54-.4,1.16-.27,1.75-.31.87,2.19,1.74,4.38,2.74,6.87,1.24-2.59,2.22-4.98,2.93-7.65-1.98.15-3.77.28-5.56.41-.93-.03-1.87-.1-2.8-.07-6.04.19-11.96-.59-17.82-1.98-1.67-.4-1.68-.44-.53-1.8,2.12-2.5,4.46-4.77,7.02-6.82,1.08-.86,2.2-1.13,3.53-.86,1.11.23,2.23.37,3.35.53.66.1,1.33.22,1.94-.19.99.1,1.99.2,2.98.3.49.05.91.02,1.12-.56.89-2.5,2.27-4.81,2.72-7.47,1.92-2.91,2.54-6.37,4.07-9.45.12-.24.02-.52-.24-.68.64-.21.89-.72,1.11-1.31.51-1.38,1.08-2.73,1.62-4.1,3.93-9.87,7.85-19.74,11.81-29.6.36-.91.66-1.72-.12-2.55-.1-.11-.01-.38-.01-.58,3.79,1.13,7.69,1.66,11.62,1.94,1.11.08,2.08.29,2.95,1.03.93.8,2.13,1.1,3.23,1.58.85.36,1.73.7,2.14,1.66-.79.71-1.69.52-2.54.59-1.8.13-3.61-.21-5.39.19-1.09-.5-1.38.27-1.69,1.05-2.54,6.47-5.09,12.94-7.63,19.41-.12.31-.4.72-.3.93.92,1.89-.66,2.95-1.36,4.3-.19.37-.97.46-.65,1.06.31.6.83.06,1.25.06.26,0,.53-.06.79-.12.58-.15,1.13-.22.71-1.15-.38-.83.21-1.52,1.03-1.57,1.36-.09,1.71-.98,2.1-2.03,1.94-5.2,3.92-10.38,5.9-15.57.62-1.62,1.33-3.2.25-4.9-.12-.19-.02-.52-.02-.79,2.61.02,5.21.04,7.82.04.62,0,1.21.01,1.67.49,1.38,1.41,3.07,2.36,4.84,3.16.18.08.35.19.62.33-.78.72-1.52.66-2.22.79-2.86.54-5.73.14-8.59,0-.79-.31-1.59-.62-2.47-.97-2.35,6.3-4.92,12.43-7.11,18.89,1.08-.12,2.05-.47,2.88-.27,1.23.3,1.57-.19,1.94-1.19,1.91-5.12,3.88-10.22,5.83-15.32.32.07.61.2.81.47-2.08,5.49-4.19,10.98-6.23,16.49-.46,1.24-1.41,2.42-.78,3.94.11.27-.2.76-.37,1.11-.39.77-.82,1.52-1.23,2.29,1.88.7,2.01,1.26.65,2.55-.64.61-1.38,1.06-2.23,1.28-.42.11-.6.25-.75.73-1.44,4.8-3.33,9.43-5.38,14-1.05-.18-.59-.82-.39-1.34,1.41-3.75,2.83-7.49,4.25-11.23.2-.53.53-1.03.32-1.71-.95.21-1.78.46-2.63.58-1.18.17-1.81.77-2.22,1.92-1.29,3.65-2.71,7.25-4.07,10.87-.17.46-.5.89-.44,1.41.91.2,1.3-.47,1.84-.8.55-.34.99-.41,1.23.34-.35.78-.23,1.57,0,2.35.47,1.56.63,3.13.2,4.73-.17.64-.22,1.32.07,1.97-.08.27-.23.57-.51.53-1.12-.14-1.49.58-1.83,1.43-2.36,6.01-4.75,12.01-7.11,18.02-.21.54-.59,1.07-.26,1.7-1.35,1.35-1.57,2.85-.62,4.52.66,1.17.78,2.62,1.94,3.91.97-2.3,1.94-4.26,2.39-6.42.5-.41.56-1.04.77-1.59,2.45-6.37,4.88-12.74,7.32-19.11.99-2.57,1-2.57-1.63-3.16.68-2.44,1-4.91.56-7.43-.02-.12.06-.25.09-.38.33-.26.65-.52.98-.79.25-.08.53-.13.75-.26,3.08-1.73,6.45-2.53,9.91-2.99.53-.07,1.07-.07,1.6-.08.28,0,.51.14.64.4.19.37-.02.66-.28.87-1.13.89-2.47,1.3-3.86,1.56-.71.13-1.48.05-2.11.55,2.67,1.18,5.16,1.34,8.73.62.74-.15,1.81-.66,2.13.31.29.89-.88.99-1.48,1.29-1.61.84-3.36,1.22-5.18,1.39,1.36.76,2.76.61,4.15.48,1.66-.16,3.33-.3,4.88-1.01.4-.19.98-.28,1.27.22.34.61-.11,1.02-.57,1.31-1.55.97-3.19,1.69-5.05,1.73-1.24.02-2.47,0-3.71,0,3.21.69,3.57.69,6.48.05.39-.09.79-.14,1.19-.17.26-.02.55.02.67.31.13.32-.08.54-.31.65-1.98.89-3.86,2.16-6.23,1.68-.85-.17-1.74-.22-2.61.05,1.4.74,2.91.8,4.42.84.74.02,1.88-.62,2.04.44.13.88-1.15.91-1.86,1.19-.48.19-1.05.16-1.58.18-.93.03-1.87,0-2.77,0-4.74,11.36-8.82,22.97-13.42,34.37-.28.7-.44,1.4-.52,2.13-1.02.87-1.08,2.21-1.65,3.3-1.2,2.31.03,4.07,1.1,5.98.68-.49.97-.98,1.04-1.6,3.58-9.23,7.16-18.46,10.75-27.69,1.96-5.05,3.94-10.1,5.94-15.14.18-.47.35-1.22,1.04-.98.82.29.05.85.02,1.29-.01.19-.15.37-.22.56-4.13,10.6-8.2,21.22-12.42,31.78-1.7,4.27-3.03,8.7-5.27,12.75-.17.32-.21.82-.1,1.17.43,1.32.89,2.64,1.73,3.92.21-.42.39-.7.5-1,3.79-9.65,7.59-19.3,11.37-28.96,6.97-17.82,13.92-35.65,20.89-53.47.39-.99.86-1.96.92-3.04ZM229.25,70.57c.05-.05.1-.1.16-.13.08-.09.16-.18.24-.27.24-.48.51-.94.71-1.43,1.77-4.48,3.52-8.95,5.27-13.44,1.08-2.78,2.16-5.56,3.25-8.39-1.56-.38-2.87-.99-4.3-1.74-4.05,10.55-8.27,20.91-12.01,31.47.33-.2.56-.44.7-.73.67-1.32,1.41-2.44,2.94-3.03,1.04-.4,2.12-1.06,2.78-2.11.14,0,.22-.07.24-.2ZM232.56,76.55c-.34.32-.37.75-.41,1.18-.04.04-.1.08-.13.13-.02.04-.02.09-.03.13.05-.09.09-.19.14-.28.31-.33.4-.74.41-1.18.26-.22.34-.52.39-.83.03-.18.44-.26.13-.53-.04.18-.07.36-.11.55-.26.22-.35.51-.39.83ZM235.76,73.7c-.26-.03-.53-.06-.74.14-.01.01.04.15.08.16.29.08.5-.06.67-.29.33-.02.65-.04.79-.42.46-.04.91-.08,1.37-.13.38.21.72.71,1.2.28.39-.35.38-.8.03-1.21l.11.09-.09-.1c-.28.47-.8.57-1.24.81-.49-.06-.97-.1-1.37.28-.33,0-.65.03-.82.39ZM217.16,86.69c.19-.92.67-1.72,1.05-2.56.98-2.17,1.9-4.36,2.31-6.73.76-.47.84-1.34,1.12-2.06,3.82-9.71,7.62-19.43,11.42-29.14.78-1.98.79-1.98-1.05-2.94-.34-.18-.64-.51-1.1-.42-.46.26-.46.79-.63,1.19-3.5,8.68-6.99,17.37-10.46,26.07-1.06,2.66-2.06,5.35-3.09,8.03-.77.88-.97,2.01-1.31,3.06-.73,2.25-2,4.29-2.56,6.6-1.55,2.87-2.43,6.02-3.81,9.03.98.31,1.81.48,2.66.62,1.07.18,1.5-.28,1.85-1.24,1.15-3.19,2.39-6.35,3.59-9.52ZM220.39,85.04c-1.21.28-1.87,1.05-2.29,2.23-1.08,3.02-2.28,5.99-3.42,8.98-.48,1.26-.39,1.41.86,1.52.8.07,1.6.03,2.4.08.72.05,1.02-.27,1.28-.94,1.45-3.8,2.98-7.58,4.45-11.38.15-.39.55-.78.16-1.35-.56,0-1.15,0-1.75,0-.07-1.35-.48-2.6-1.02-4.08-.78,1.19-1.23,2.28-1.54,3.44-.21.8.04,1.31.87,1.49ZM224.53,130.82c-1.27,2.14-1.81,4.58-2.84,6.82-.1.22-.11.55-.03.78.5,1.35,1.04,2.68,1.68,4.31,1.61-3.03,2.37-5.95,3.38-8.77.13-.38.07-.8-.2-1.14,1.1.32.98-.68,1.17-1.18,2.44-6.22,4.83-12.45,7.24-18.68.72-1.86,1.43-3.71,2.12-5.52-.19-.14-.24-.2-.29-.21-.52-.11-1.04-.21-1.56-.32-1.7-.34-1.72-.34-2.32,1.22-2.64,6.86-5.28,13.71-7.89,20.58-.25.67-.7,1.32-.47,2.11ZM227.84,135.66c-.67.33-.84,1-1.08,1.61-.61,1.55-1.07,3.17-1.82,4.64-1.25,2.44-.24,4.43.99,6.73,1.09-2.48,2.11-4.7,2.68-7.1.46-.51.61-1.17.85-1.79,3.86-9.97,7.71-19.94,11.56-29.91.12-.31.27-.62.34-.94.1-.44-.05-.79-.53-.91-.45-.12-.91-.2-1.36-.34-.97-.3-1.35.08-1.71,1.02-3.16,8.3-6.38,16.58-9.6,24.86-.27.7-.54,1.37-.31,2.13ZM263.64,79.73c-2.06,5.17-4.05,10.13-6,15.11-7.12,18.18-14.22,36.37-21.33,54.56-1.53,3.92-3.07,7.84-4.6,11.77-.24.62-.56,1.24-.26,1.93.54,1.26,1.08,2.53,1.67,3.89.64-.63.77-1.31,1.01-1.92,7.59-19.37,15.17-38.74,22.75-58.1,2.78-7.1,5.6-14.18,8.38-21.28.28-.72.74-1.4.37-2.29-.52-1.23-.97-2.48-1.99-3.67ZM235.98,173.17c1.39-3.48,2.72-6.77,4.01-10.07,9.29-23.77,18.58-47.55,27.86-71.33.22-.55.45-1.08.1-1.72-.62-1.1-1.16-2.24-1.82-3.54-.29.67-.48,1.09-.65,1.52-4.3,10.95-8.6,21.91-12.88,32.86-4.29,10.96-8.56,21.92-12.85,32.88-1.8,4.61-3.6,9.22-5.4,13.83-.26.67-.84,1.5-.35,2.06.86.99.9,2.36,1.98,3.5ZM225.89,106.68c-.73,0-1.59.07-2.43-.02-1.1-.12-1.66.28-2.06,1.34-1.75,4.62-3.52,9.22-5.44,13.77-.69,1.63-.15,2.9.67,4.11.8,1.18,1.7,1,2.23-.33,2.3-5.76,4.59-11.53,6.88-17.29.17-.42.47-.83.15-1.58ZM220.03,97.81c1.3,0,2.3-.02,3.3,0,.85.03,1.29-.29,1.6-1.14,1.39-3.83,2.89-7.62,4.31-11.44.15-.39.53-.78.2-1.36-.97.1-1.95.29-2.94.28-.89-.01-1.32.36-1.62,1.14-1.57,4.1-3.18,8.2-4.86,12.52ZM220.87,106.68c-1.36.09-2.42.14-3.47.24-.92.09-1.47.43-1.77,1.5-.27.99-.56,2.01-.97,2.98-.68,1.59-1.59,3.18-1.79,4.85-.2,1.71,1.21,3.18,1.69,4.84.06.2.12.24.57-.2,1.78-4.4,3.71-9.18,5.74-14.21ZM235.05,79.61c.53.12.71.2.9.19.39-.01.98-.04.89-.52-.1-.58-.62-.2-.96-.1-.18.05-.34.17-.83.43ZM234.91,76.98c.71.02,1.08-.15,1.33-.6-.51-.14-.82.16-1.33.6Z"/>
      <path class="cls-1" d="M184.34,84.9c-.99-.65-1.81-.45-2.54-.32-3.55.66-6.85,2.02-9.51,4.47-4.58,4.22-9.22,8.37-14.13,12.2-2.75,2.15-4.99,4.84-7.67,7.08-3.1,2.59-6.41,4.56-10.55,4.9-1.66.14-3.29.57-4.94.86-.37.06-.82.31-1.05-.19-.16-.35.13-.64.35-.88,2.08-2.29,4.47-4.14,7.67-4.33,4.13-.25,6.82-2.45,8.65-5.95.62-1.18,1.15-2.42,1.7-3.64,1.01-2.23,2.45-4.16,4.23-5.81,3.98-3.7,8.19-7.11,12.93-9.81,1.46-.83,1.51-.9.54-2.42-3.7-5.82-7.27-11.72-11.31-17.33-.38-.53-.89-1.01-.99-1.71.36-.52.71-.15,1.02.02.29.16.61.32.82.57,1.99,2.33,4.68,3.13,7.55,3.74,4.7.99,8.11,3.95,10.94,7.67.69.9,1.29,1.87,1.93,2.82,2.49,3.68,5.62,6.8,8.86,9.8.69.64,1.41,1.23,1.91,2.05.35.58.32,1.01-.45,1.16-.2.04-.39.1-.59.12-4.56.38-8.17,2.79-11.62,5.51-2.52,1.99-4.96,4.09-7.45,6.12-4.51,3.67-7.94,8.32-11.67,12.7-2.3,2.7-4.65,5.35-6.97,8.04-.54.63-1.2,1.03-1.99,1.29-3.11,1.06-6.29,1.85-9.55,2.29-.66.09-1.35.1-2,0-4.24-.63-8.4-.29-12.51.91-.47.14-.97.52-1.64.07,1.47-1.39,3.27-2.1,5.06-2.74,2.08-.75,4.23-1.23,6.5-.76,1.56.32,3.04,0,4.46-.76,2.83-1.52,5.7-2.97,8.67-4.21,1.2-.5,2.09-1.42,3.12-2.16,3.97-2.89,6.85-6.72,9.51-10.76,2.36-3.58,4.78-7.11,7.43-10.49,1.16-1.48,2.46-2.81,3.78-4.15,2.44-2.47,5.34-3.97,8.66-4.79.89-.22,1.83-.39,2.82-1.16Z"/>
      <path class="cls-1" d="M198.83,94.66s-.09.14-.13.13c-2.35-.34-4.02.95-5.72,2.29-4.14,3.26-7.46,7.28-10.82,11.28-3.7,4.42-6.93,9.2-10.2,13.93-3.33,4.81-7.74,7.72-13.15,9.67-4.83,1.73-9.75,2.83-14.79,3.54-2.45.34-4.94.3-7.41,0-1.82-.21-3.47-.95-5.02-1.91-2.92-1.81-6.06-1.97-9.28-1.06-2.31.65-4.05,2.02-4.89,4.37-.2.55-.33,1.17-.86,1.55-.78-1.06-.9-2.29-.17-3.16,1.42-1.69,2.89-3.35,4.82-4.5,1.17-.7,2.43-1.04,3.77-1.26,4.06-.68,7.98-.25,11.84,1.16,2.73,1,5.46.41,8.05-.51,3.79-1.35,7.27-3.38,10.78-5.33.52-.29.96-.72,1.41-1.13,4.58-4.22,9.06-8.55,13.33-13.08,5.98-6.34,12.84-11.51,20.31-15.93,1.04-.61,2.09-1.22,3.26-1.54,2.08-.57,3.84-.02,4.89,1.49Z"/>
      <path class="cls-1" d="M181.91,49.16c-2.45,1.23-4.74.72-7.07-.46-3.14-1.59-5.58-3.87-7.38-6.86-.41-.69-.74-1.41-1.68-1.57-.67-.11-.9-.73-1.16-1.28-.27-.6-.15-1.07.45-1.33,1.94-.83,2.64-2.52,3.21-4.36.25-.83.58-1.64.92-2.43.61-1.41,1.61-2.43,3.06-3.01,1.11-.45,2.21-.94,3.29-1.48,1.2-.61,2.38-1.34,3-2.57.5-1,1.1-.58,1.75-.38,0,0,0,0,0,0-.15.4,0,.66.39.79,0,0,.02.02.02.02,0,.25.14.38.38.39,0,0,.02.02.02.02.02.25.16.37.4.4,0,0-.01,0-.01,0,.22.54.72.77,1.18,1,1.01.49,2.05.92,3.06,1.41.89.44,1.45,1.37,1.19,2.04-.31.81-1.03.28-1.56.41-.25.06-.53.02-.78.09-1.12.3-2.42.36-2.68,1.89h0c-.95.82-.77,1.94-.74,2.99.03.8.25,1.59.26,2.39.03,2.96,1.04,3.05-3.07,2.79-.08,0-.16.15-.35.34,1.12.79,2.3.87,3.5.45.62-.22.9-.8.87-1.45-.04-.93-.12-1.87-.2-2.8-.05-.67-.18-1.33-.17-1.99.01-.56.41-.99.92-.56,1.05.89,1.84.78,2.72-.25.38-.44.91-.1,1.05.42.12.44.09.93.08,1.39-.07,3.07-.93,5.94-2.19,8.71-.3.66-.81,1.25-.67,2.06,0,0,0-.01,0-.01-.41.14-.49.44-.41.82,0,0,.01-.02.01-.02-.27.01-.37.19-.42.42,0,0,.02-.03.02-.03-.33.18-.46.46-.42.83l.02-.02c-.25.03-.38.19-.42.42,0,0,.02-.02.02-.02-.24.05-.38.19-.42.42l.02-.02ZM177.72,33.79c-2.16-1.66-3.57-1.67-5.91-.13.73.26,1.38.5,1.94.93.49.39,1.25.51,1.62-.04.55-.82,1.32-.81,2.34-.75ZM170.35,31.74c1.69-.28,2.84-.86,4.1-.97,1.32-.12,2.55.57,3.99.48-1.86-1.92-5.7-1.76-8.1.49ZM182.15,43.75l.05-.51c-1.75-.81-3.44-.3-5.11.51h5.06ZM180.79,45.14c-.67-.33-1.19-.41-1.71-.06.16.44.43.46.69.46.32,0,.67.06,1.02-.41Z"/>
      <path class="cls-1" d="M210.26,133.5c-.43.09-.68-.16-.94-.36-3.78-2.88-7.75-5.48-11.78-7.99-1.62-1.01-2.58-2.35-3.15-4.19-1.26-4.1-2.21-8.26-3.26-12.41-.35-1.4-.17-1.61,1.23-1.32,2.5.52,5.01.82,7.56.78,1.11-.02,1.66.47,2.03,1.51,2.62,7.37,5.29,14.72,7.93,22.08.21.6.6,1.2.38,1.88Z"/>
      <path class="cls-3" d="M129.26,182.71c.16-.96.08-1.82-.58-2.63-.54-.66-.64-1.49-.22-2.27.38-.7.23-1.22-.24-1.81-.78-.97-.96-2.06-.3-3.18.28-.48.2-.78-.21-1.2-1.93-1.91-1.94-2.19-.48-4.38.1-.15.15-.34.22-.52-.51-.66-1.32-.68-1.94-1.04-1.27-.72-1.79-1.85-1.36-3,.41-1.1,2.19-1.9,3.4-1.5.39.13.78.33.75.81-.03.52-.46.58-.88.6-.13,0-.27,0-.4,0-.52-.02-1.15-.2-1.36.49-.25.81.32,1.22.92,1.58.17.1.35.19.54.27,2.12.94,2.62.63,2.59-1.64,0-.13,0-.27-.01-.4-.11-.92.35-2.06-.33-2.71-.6-.57-1.64-.03-2.49-.02-3.41,0-6.39-1.26-9.23-2.98-.22-.14-.4-.35-.37-.93,2.55-.26,4.71-1.75,7.08-2.75,1.66-.7,2.65-.11,3.13,1.66.05.19.05.4.09.59.15.68.61,1.11,1.28.98.71-.13.49-.84.55-1.33.05-.4-.04-.79-.25-1.16-.13-.23-.24-.49-.26-.75-.09-.8.17-1.44.93-1.84.49-.25.91-.11,1.29.21.62.53.88,1.22.5,1.97-.3.59-.75,1.11-.66,1.84.06.47.03,1.03.63,1.1.56.07,1.05-.19,1.25-.79.06-.19.06-.4.1-.59.5-2.19,1.62-2.81,3.63-1.91,1.95.87,3.82,1.93,5.96,2.34.84.16.92.7.24,1.24-1.7,1.36-3.67,2.22-5.79,2.64-1.7.33-3.42.65-5.17.24-.65-.15-.88.21-.89.73-.05,1.27-.05,2.54-.05,3.82,0,.79.47,1.05,1.2.92.87-.16,1.66-.52,2.37-1.04.4-.3.65-.7.49-1.21-.17-.56-.62-.64-1.12-.57-.13.02-.26.05-.39.07-.54.1-1.21.19-1.33-.48-.15-.79.59-.95,1.17-1.07,1.25-.25,2.64.53,3.1,1.7.44,1.12.04,1.98-1.27,2.81-.62.39-1.4.48-1.91,1.01-.14.43.2.61.37.88,1.16,1.76,1.09,2.61-.49,3.96-.53.46-.81.77-.38,1.47.63,1.04.45,2.08-.34,2.97-.53.59-.57,1.11-.15,1.78.41.66.55,1.54.06,2.1-.92,1.05-.75,2.2-.58,3.36-.13.03-.22.07-.24.05-.26-.23-.58-1.14-.79-.06-.18.94.24,1.96-.19,3.12-.74-1.23-.09-2.71-1.19-3.59l.02.02ZM130.9,169.02c0,.46-.04.8,0,1.13.09.73.49.9,1.07.45.26-.2.5-.45.66-.73.36-.62.09-1.16-.33-1.64-.26-.3-.61-.65-1.02-.49-.67.26-.29.93-.39,1.28ZM129.41,170.75c.37-.88.24-1.68.18-2.47-.04-.56-.46-.62-.87-.41-.57.29-1,.77-.92,1.42.1.8.62,1.3,1.62,1.45ZM131.09,173.03c-.26,1.04-.42,1.72.08,2.53.83-.85.9-1.53-.08-2.53ZM131.1,178.06c-.38.71-.43,1.24,0,1.86.64-.56.61-1.07,0-1.86ZM129.26,173.05c-.42,1-.61,1.6.19,2.16.36-.67.38-1.25-.19-2.16ZM129.53,178.31c-.25,0-.32.18-.34.36-.04.26-.05.57.23.68.2.08.3-.17.32-.35.03-.26.04-.53-.21-.69Z"/>
      <path class="cls-1" d="M143.34,178.71c-.18-1.24.28-2.39.54-3.55,1.15-5.27,1.54-10.57,1.27-15.96-.18-3.61-.7-7.19-.72-10.82-.02-2.99,1.05-5.31,3.3-7.2,2.26-1.89,4.44-3.88,6.96-5.43,1.08-.66,2.17-1.29,3.67-1.72-.2,1.18-.93,1.77-1.52,2.39-2.97,3.09-4.79,6.76-5.57,10.94-.38,2.04-.67,4.1-.66,6.18.01,2.95,0,5.9.06,8.84.05,2.16-.18,4.28-.56,6.39-.52,2.95-2.28,5.25-4.13,7.47-.76.92-1.56,1.84-2.65,2.42l.02.03Z"/>
      <path class="cls-1" d="M271.65,131.15c1.19.66,2.02,1.62,2.68,2.78,2.1,3.72,2.81,7.67,1.81,11.82-1.97,8.15-4.97,15.81-10.34,22.42-3.46,4.27-7.01,8.45-10.55,12.65-3.42,4.06-6.02,8.51-7.4,13.66-.15.57-.2,1.28-.94,1.4-.92.15-1.88.19-2.79-.06-.37-.1-.35-.55-.26-.87.31-1.09.59-2.2.99-3.26,1-2.65,2.52-5.01,4.11-7.34,3.14-4.62,6.96-8.65,10.64-12.81,5.5-6.23,9.92-13.13,12.82-20.95,1.61-4.36,1.96-8.87,1.45-13.46-.24-2.15-1.19-4.06-2.23-5.96Z"/>
      <path class="cls-1" d="M145.07,62.23c.46-.92,1.19-1.61,1.94-2.28,1.24-1.12,2.63-2.09,3.77-3.3,2.59-2.76,6-3.29,9.45-3.76.9-.12,1.72.18,2.51.56,3.41,1.65,6.37,3.87,8.86,6.77,2.89,3.36,5.24,7.1,7.64,10.8.56.86,1.15,1.74,1.31,3.06-1.23-.51-1.66-1.46-2.25-2.21-1.25-1.58-2.56-3.08-4.18-4.31-2.29-1.74-4.76-2.96-7.68-3.11-1.34-.07-2.43-.61-3.38-1.54-3.33-3.27-7.3-3.91-11.7-2.77-2.09.54-4.01,1.48-5.94,2.39-.12-.1-.23-.21-.35-.31Z"/>
      <path class="cls-1" d="M167.66,44.59c1.27,1.16,2.23,2.08,3.24,2.95,1.86,1.6,4.06,2.56,6.41,3.15.88.22,1.31.47,1.02,1.45-.71,2.45-1.02,4.96-1.13,7.5-.04,1.04-.46,1.26-1.46.99-.66-.18-1.22-.54-1.72-.99-2.6-2.4-5-5.01-7.98-6.96-.54-.35-.63-.78-.34-1.37,1.01-2.03,1.7-4.17,1.96-6.72Z"/>
      <path class="cls-1" d="M244.48,217.98c-4.58-.09-8.77-1.58-12.84-3.54-.79-.38-.78-.81-.17-1.33,2.12-1.8,4.58-2.71,7.34-2.85.72-.04,1.27.37,1.79.79,1.81,1.48,3.62,2.97,5.42,4.46.15.13.29.28.43.42.33.35.62.74.49,1.25-.16.64-.73.73-1.26.79-.4.05-.8,0-1.2,0Z"/>
      <path class="cls-1" d="M143.08,151.56c-1.35-.38-2.34-1.08-3.42-1.58-2.36-1.1-4.74-2.18-7.07-3.34-3.33-1.66-3.8-2.79-2.92-6.43.28-1.15.74-2.14,1.75-2.82.99-.67,2-1.01,3.2-.5.85.36,1.75.6,2.64.91-.26.75-.93.87-1.4,1.2-2.75,1.94-2.83,4.75-.14,6.78,1.67,1.25,3.55,2.14,5.53,2.8,1.79.59,1.83.63,1.83,2.99Z"/>
      <path class="cls-1" d="M181.84,54.77c4.23,11.92,8.41,23.72,12.63,35.6-1.65.12-2.08-.87-2.51-1.98-2.35-6.05-4.32-12.23-6.3-18.4-.72-2.22-1.59-4.4-2.29-6.62-.76-2.41-1.4-4.87-2.11-7.3-.11-.38-.15-.8.59-1.3Z"/>
      <path class="cls-1" d="M232.62,194c.82.05,1.07.5,1.39.81,2.03,2.01,4.36,3.52,7.12,4.29,1.1.3,1.71.92,2.03,1.96.45,1.48.78,2.97.37,4.52-.18.66-.45,1.26-1.01,1.68-.79.6-1.89.57-2.25-.22-1.39-3-3.77-5.33-5.38-8.18-.85-1.5-1.64-3.04-2.26-4.87Z"/>
      <path class="cls-1" d="M185.12,79.45c-.34-.64-.72-1.28-1.03-1.94-1.98-4.25-4.51-8.18-6.95-12.17-.17-.28-.37-.56-.52-.86-.23-.44-.14-.85.4-.86,1.48-.04,2.91-.31,4.33-.7.54-.15.92.13,1.1.61.28.75.55,1.5.75,2.28,1.09,4.21,1.75,8.5,2.23,12.81.03.26,0,.52,0,.79-.11,0-.22.02-.33.03Z"/>
      <path class="cls-1" d="M184,18.24c-.92,3.67-.29,3.23-3.72,3.24-2.33,0-4.69-.31-6.96.52-.51.19-.97.02-1.11-.54-.34-1.36-1.15-2.15-2.65-2.24,4.79-1.32,9.54-1.91,14.44-.98Z"/>
      <path class="cls-1" d="M249.41,204.89c.04.97-.18,1.85-.76,2.63-.84,1.14-2.07,1.48-3.35.92-.77-.34-1.17-.82-.82-1.72.74-1.87.65-3.76.16-5.68-.3-1.18-.16-1.26.97-1.33,1.18-.06,2.04.38,2.65,1.4.7,1.17,1.11,2.41,1.14,3.77Z"/>
      <path class="cls-1" d="M254.91,204.67c-.08,1.08-.39,2.03-.97,2.87-.68.99-1.74,1.33-2.79,1-.6-.19-.93-.52-.65-1.18.97-2.31.35-4.42-.76-6.49-.58-1.08-.43-1.29.8-1.53.92-.18,1.68,0,2.33.74,1.18,1.34,1.94,2.85,2.05,4.6Z"/>
      <path class="cls-1" d="M145.42,62.55c-.32.33-.64.68-1.28.88.13-.64.52-.93.94-1.19.11.1.23.21.35.31Z"/>
      <path class="cls-1" d="M181.09,74.93c.06.08.11.16.17.24-.04-.03-.11-.05-.13-.08-.02-.05-.01-.12-.02-.18l-.02.02Z"/>
      <path class="cls-1" d="M129.24,182.69c-.04.08-.08.16-.12.24.05-.07.09-.15.14-.22,0,0-.02-.02-.02-.02Z"/>
      <path class="cls-1" d="M181.12,74.9s-.09-.03-.13-.04c.04.02.07.05.11.07,0,0,.02-.02.02-.02Z"/>
      <polygon class="cls-1" points="143.32 178.68 143.23 178.75 143.34 178.71 143.32 178.68"/>
      <path class="cls-3" d="M275.68,113.84c1.69-.05,2.57.98,2.21,2.7-.33,1.56-.25,3.05.17,4.55.49,1.78.7,1.93,2.54,1.5,1.42-.34,2.81-.61,3.91-1.82.94-1.04,2.67-.65,3.46.53.4.59.33,1.16-.1,1.66-.64.76-1.54,1.3-2.48.99-1.84-.6-3.4.28-5.06.67-.94.22-1.08.76-.82,1.65.57,1.92,1.05,3.87,1.57,5.81.1.39.21.77.31,1.16.12.47.24.95-.37,1.17-.65.23-1.23.11-1.46-.61-.37-1.15-.68-2.31-1-3.47-.34-1.23-.71-2.45-.95-3.69-.19-.97-.66-1.2-1.55-.96-1.48.41-2.97.78-4.46,1.17-.39.1-.77.23-1.16.3-.63.12-1.28.08-1.46-.66-.19-.78.53-.78,1.01-.92,1.85-.57,3.7-1.14,5.56-1.7.83-.25,1.23-.65.98-1.61-.42-1.6-.53-3.28-2.1-4.38-.77-.54-1.15-1.51-.72-2.52.4-.92,1.13-1.47,1.98-1.52Z"/>
      <path class="cls-3" d="M290.43,114.74c.14,1.85-1,2.88-2.49,3.43-1.71.63-3.44.4-4.87-.84-1.19-1.04-1.84-2.38-1.9-3.98.55-.2.62.2.77.45,1.86,2.94,4.86,3.53,7.66,1.49.27-.19.55-.37.82-.55,0,0,.01.01.01.01Z"/>
      <path class="cls-3" d="M304.42,83.59c-.86-.29-1.71-.59-2.71-.93q1.51-.29,2.71.93Z"/>
      <path class="cls-3" d="M301.6,83.59c.7-.12,1.14.21,1.6.42.3.13.63.34.3.73-.22.26-.58.43-.88.2-.4-.32-.85-.63-1.02-1.35Z"/>
      <path class="cls-3" d="M280.08,53.09c.17.33.11.45-.26.3.08-.11.17-.21.26-.3Z"/>
      <polygon class="cls-3" points="279.2 85.34 279.25 85.49 279.11 85.44 279.2 85.34"/>
      <polygon class="cls-3" points="290.42 114.73 290.53 114.66 290.43 114.74 290.42 114.73"/>
      <path class="cls-1" d="M237.16,33.35c.98-.36,1.67.03,2.37.16,4.48.8,9.01,1.32,13.43,2.41.78.19,1.56.38,2.34.56.98.22,1.65.68,1.92,1.76.32,1.25,1.15,2.25,1.99,3.22.33.38.89.64.83,1.28-.33.27-.65.12-.96.02-5.91-1.96-11.92-3.58-17.79-5.66-1.87-.66-3.2-1.84-4.15-3.75Z"/>
      <path class="cls-1" d="M281.85,104.45c-2.18-.12-3.53-.86-4.49-2.61-1.98-3.58-3.27-7.33-3.62-11.4-.18-2.04-.85-3.91-1.85-5.69-.7-1.23-1.27-2.52-1.43-3.95-.17-1.57.41-2.24,1.9-2.47.7-.11,1.02.13,1.06.81.06,1.07.01,2.19.47,3.17,1.35,2.88,1.94,5.87,2.21,9.05.31,3.51,1.85,6.7,4.35,9.31.65.68,1.38,1.26,2.19,1.76.38.24.89.45.71,1.06-.14.5-.57.73-1.03.87-.25.07-.52.09-.47.08Z"/>
      <path class="cls-1" d="M214.5,28.58c-.83-.76-1.59-1.57-2.09-2.6.16-.43-.08-.95.38-1.44,1.86.53,3.76,1.16,5.49,2.14,5.05,2.86,10.49,4.65,16.1,5.97.7.16,1.74.15,1.56,1.13-.17.96-1.22.55-1.87.52-4.83-.24-9.54-1.12-14.13-2.66-.63-.21-1.21-.59-1.92-.51,0,0,.02,0,.02,0-.08-.25-.26-.35-.51-.33-.1-.02-.18-.07-.24-.14-.09-.23-.25-.32-.49-.3,0,0,0,0,0,0-.15-.32-.41-.48-.76-.48,0,0,.01,0,.01,0-.34-.65-.89-1.06-1.57-1.3Z"/>
      <path class="cls-1" d="M261.03,67.32c-.59-.29-1.19-.58-1.82-.9-.67.93-.93,1.98-1.3,2.96-3.32,8.9-7,17.66-10.13,26.63-.2.56-.3,1.64-1.14,1.35-.99-.34-.12-1.18.06-1.66,3.7-9.76,7.45-19.5,11.22-29.23.24-.63.51-1.23.49-1.92,2.53.74,4.99.22,7.46-.35.56-.13,1.19-.66,1.69-.19.77.72,1.46,1.55,2.04,2.43.28.43-.29.65-.67.75-2.22.61-4.47.63-6.73.32-.39-.05-.78-.14-1.18-.2Z"/>
      <path class="cls-1" d="M254.11,60.13c-.83-.24-1.31-1.11-2.33-1.31-1.19,3.13-2.36,6.24-3.55,9.35-3.08,8.05-6.16,16.1-9.25,24.15-.25.65-.36,1.45-1.2,1.64-.49-.3-.21-.6-.11-.88,4.26-11.32,8.52-22.63,12.79-33.95.26-.68.42-1.41.93-1.97,1.25.72,2.61.44,3.92.33,1-.08,1.98-.28,2.97-.45.41-.07.82-.1,1.1.27.43.57,1.24,1.07,1.03,1.84-.19.71-1.08.73-1.71.78-1.53.13-3.07.15-4.6.21Z"/>
      <path class="cls-1" d="M262.99,70.95c-.37-.03-.54.1-.7.5-3.44,8.84-6.9,17.67-10.37,26.5-.22.56-.5,1.09-.78,1.62-.14.25-.43.38-.69.29-.3-.11-.27-.42-.18-.67.24-.69.48-1.39.75-2.07,3.44-8.77,6.84-17.55,10.36-26.29.4-.99-.25-1.83.15-2.7,2.57,1.08,5.18.82,7.8.22.71-.16,1.42-.43,2.15-.29.59.11,1.23.37,1.32,1.05.09.69-.59.78-1.07.96-2.84,1.1-5.73,1.69-8.76.9Z"/>
      <path class="cls-1" d="M258,63.83c-.74-.3-1.48-.6-2.26-.92-.47.31-.52.86-.7,1.34-3.35,8.74-6.67,17.49-10.05,26.22-.33.87-.44,1.97-1.63,2.48-.27-.96.21-1.65.47-2.35,3.48-9.19,6.96-18.38,10.49-27.55.28-.72.49-1.36.2-2.1,1.91.6,3.83.52,5.72,0,1.17-.32,2.19-.36,3.18.47.74.63,1.82.75,2.72,1.57-2.76,1.23-5.47.97-8.16.84Z"/>
      <path class="cls-1" d="M259.68,52.84c1.46.37,2.5.64,3.54.89.65.16,1.01.59,1.25,1.19,1.04,2.6,2.78,4.54,5.38,5.66.64.28,1.09.71,1.32,1.41.4,1.17,1.15,2.11,2.08,2.9.2.17.42.34.59.54.55.63.35,1.34-.09,1.83-.5.55-.99-.04-1.35-.36-.89-.81-1.76-1.65-2.54-2.57-.98-1.15-2.11-2.02-3.48-2.64-3.35-1.51-5.34-4.35-7.11-7.4-.21-.35-.3-.79-.08-1.15.19-.32.57-.28.48-.3Z"/>
      <path class="cls-1" d="M241.78,38.92c3.44.96,6.89,1.92,10.33,2.9,2.12.6,4.21,1.29,6.34,1.86,1.86.5,1.88.45,2.17,2.28.06.38.23.77,0,1.29-1.16-.38-2.39-.62-3.48-1.17-2.36-1.19-4.86-1.92-7.46-2.12-3.24-.25-5.61-1.94-7.71-4.2-.18-.19-.36-.4-.2-.84Z"/>
      <path class="cls-1" d="M250.05,45.24c3.76.72,7.12,1.73,10.39,3.01,1.12.44,1.85,1.53,2.95,3.84-2.88.77-11.15-2.85-13.34-6.85Z"/>
      <path class="cls-1" d="M272.31,49.2c-5.24-2.83-10.34-5.81-13.57-11.28,1.1-.64,1.86,0,2.64.15,2.32.43,4.01,1.72,5.05,3.86,1.39,2.89,3.53,5.16,5.97,7.17l-.09.1Z"/>
      <path class="cls-1" d="M221.96,35.13c-.78-.65-1.56-1.31-2.34-1.96.33-.56.78-.38,1.22-.2,4.71,1.94,9.64,2.66,14.7,2.53,1.24-.03,2.01.51,2.53,1.57-.28.58-.81.37-1.23.37-3.56.01-7.05-.62-10.53-1.27-.65-.12-1.28-.4-1.97-.19-.32-.06-.63-.11-.95-.17-.09-.22-.22-.38-.49-.33,0,0-.03,0-.03,0-.2-.4-.52-.47-.92-.36Z"/>
      <path class="cls-1" d="M228.31,39.68s-.16-.06-.16-.06c-.53-.62-1.26-.82-2-.99-.51-.41-1.05-.8-1.17-1.51,4.01,1.14,8.16,1.27,12.28,1.49,1.78.1,2.82.78,3.61,2.32-3.74-.23-7.38-.48-10.98-1.19-.52-.1-1.04-.25-1.57-.06Z"/>
      <path class="cls-1" d="M251.31,56.48c-1.07-.64-2.28-1.08-3.08-2.11.37-.37.85-.33,1.31-.32,2.33.02,4.65.1,6.91-.67.88-.3,1.3.22,1.64,1.48.26.96-.32,1.11-1.02,1.3-1.9.5-3.84.21-5.76.33Z"/>
      <path class="cls-1" d="M264.34,73.66c-.41-.62-.96-1.16-.96-1.98,2.73.63,5.43.64,8.11-.29.48-.17,1.14-.75,1.5.2.34.9.04,1.57-.92,1.85-2.08.61-4.19.86-6.34.45-.46-.09-.92-.16-1.38-.24Z"/>
      <path class="cls-1" d="M272.4,49.1c.12.04.25.07.37.12.17.08.4.22.27.4-.12.17-.34-.02-.48-.13-.1-.08-.16-.2-.25-.3,0,0,.09-.1.09-.1Z"/>
      <path class="cls-3" d="M205.55,78.54c1.48,0,2.96,0,4.44,0-1.74,4.18-3.48,8.35-5.22,12.53-.81.16-1.56.48-2.28.88-.05-.2-.05-.42-.15-.58-1.25-1.98-.9-3.9.07-5.88,1.11-2.28,2.1-4.63,3.13-6.94Z"/>
      <path class="cls-3" d="M211.32,78.4c1.13.03,2.26.06,3.39.08.26.17.35.45.24.68-1.53,3.08-2.15,6.54-4.07,9.45-1.35.55-2.67,1.19-4.11,1.49,1.45-3.93,2.78-7.9,4.55-11.7Z"/>
      <path class="cls-3" d="M183.91,46.36c-.14-.8.37-1.4.67-2.06,1.26-2.77,2.12-5.64,2.19-8.71.01-.46.04-.95-.08-1.39-.14-.53-.67-.87-1.05-.42-.88,1.03-1.67,1.13-2.72.25-.51-.43-.91,0-.92.56-.01.66.12,1.33.17,1.99.08.93.16,1.87.2,2.8.03.66-.25,1.24-.87,1.45-1.21.42-2.38.34-3.5-.45.19-.19.27-.35.35-.34,4.11.25,3.11.17,3.07-2.79,0-.8-.23-1.59-.26-2.39-.04-1.05-.22-2.16.74-2.98.26.46.2,1.22,1.15.95.96-.27,1.97-.24,2.94.02.78.21.93-.24.94-.85,0-.79-.37-1.17-1.17-1.31-1.5-.26-2.65.51-3.85,1.18.26-1.53,1.56-1.59,2.68-1.89.25-.07.53-.03.78-.09.52-.13,1.25.4,1.56-.41.25-.67-.3-1.6-1.19-2.04-1.01-.49-2.05-.92-3.06-1.41-.47-.23-.97-.45-1.18-1,1.94.21,3.58,1.29,5.38,1.92.47.16.66.64.73,1.12.1.72.31,1.47.24,2.18-.3,3.05-.14,6.14-.77,9.15-.53,2.54-1.35,4.99-3.17,6.96Z"/>
      <path class="cls-3" d="M200.09,78.4c.24.06.49.13.73.19.12.05.25.11.38.14,2.52.48,2.55.49,1.63,3.01-.63,1.74-1.34,3.45-2.14,5.47-1.69-3.11-2.35-5.89-.6-8.81Z"/>
      <path class="cls-3" d="M197.27,78.43c.47-.12.93-.11,1.4,0-.12.54-.07,1.36-.81,1.3-.52-.04-.58-.77-.59-1.3Z"/>
      <path class="cls-3" d="M214.5,28.58c.68.24,1.22.65,1.57,1.3-.38,0-.76,0-1.15.01-.16-.18-.31-.37-.47-.55.02-.26.03-.51.05-.77Z"/>
      <path class="cls-3" d="M226.14,38.62c.75.17,1.48.38,2,.99-.41-.02-.83-.05-1.24-.07-.27,0-.49-.12-.64-.35-.04-.19-.08-.38-.12-.57Z"/>
      <path class="cls-3" d="M180.69,24.22c-.4-.13-.54-.39-.39-.79.37.14.55.38.39.79Z"/>
      <path class="cls-3" d="M221.96,35.13c.4-.11.72-.04.92.36-.27.24-.54.12-.81,0-.03-.12-.07-.25-.11-.37Z"/>
      <path class="cls-3" d="M183.51,47.17c-.08-.38,0-.68.41-.82.06.37-.02.67-.41.82Z"/>
      <path class="cls-3" d="M182.7,48.38c-.04-.37.09-.65.42-.83.1.39-.03.68-.42.83Z"/>
      <path class="cls-3" d="M181.09,24.63c-.25,0-.38-.14-.38-.39.29-.03.42.1.38.39Z"/>
      <path class="cls-3" d="M181.9,49.18c.05-.24.19-.38.42-.42-.02.26-.15.41-.42.42Z"/>
      <path class="cls-3" d="M182.3,48.78c.05-.24.17-.39.42-.42-.03.25-.16.4-.42.42Z"/>
      <path class="cls-3" d="M222.9,35.48c.27-.05.4.11.49.33-.19-.11-.38-.21-.57-.32,0,0,.08,0,.08,0Z"/>
      <path class="cls-3" d="M183.1,47.57c.05-.23.15-.41.42-.42-.03.25-.14.42-.42.42Z"/>
      <path class="cls-3" d="M181.51,25.04c-.24-.03-.38-.15-.4-.4.29-.02.42.11.4.4Z"/>
      <path class="cls-3" d="M217.16,86.69c-1.56-.13-2.81.95-4.3,1.1.56-2.31,1.84-4.35,2.56-6.6.34-1.05.55-2.18,1.31-3.06.71-.05,1.23-.49,1.79-.84.69-.44,1.36-.53,1.99.11-.41,2.37-1.33,4.56-2.31,6.73-.38.84-.85,1.64-1.05,2.56Z"/>
      <path class="cls-3" d="M224.53,130.82c.85.49,1.53,1.14,2,2.01.27.35.33.77.2,1.14-1.01,2.82-1.77,5.73-3.38,8.77-.65-1.64-1.19-2.97-1.68-4.31-.08-.23-.07-.56.03-.78,1.03-2.24,1.57-4.69,2.84-6.82Z"/>
      <path class="cls-3" d="M227.84,135.66c.76,1.89.7,3.89.76,5.88-.57,2.4-1.59,4.62-2.68,7.1-1.23-2.3-2.23-4.29-.99-6.73.75-1.47,1.21-3.09,1.82-4.64.24-.61.42-1.28,1.08-1.61Z"/>
      <path class="cls-3" d="M219.64,127.6c1.43.31,2.45,1.37,3.7,2.01-.44,2.16-1.41,4.11-2.39,6.42-1.16-1.29-1.28-2.74-1.94-3.91-.94-1.67-.72-3.17.62-4.52Z"/>
      <path class="cls-3" d="M228.78,145.26c.35,1.86.05,3.73.1,5.6.02.71-.25,1.49.4,2.08-.07.62-.36,1.11-1.04,1.6-1.06-1.91-2.3-3.67-1.1-5.98.57-1.09.63-2.44,1.65-3.3Z"/>
      <path class="cls-3" d="M221.69,84.63c-.32.49-.81.45-1.3.42-.83-.18-1.08-.69-.87-1.49.31-1.16.76-2.25,1.54-3.44.55,1.48.95,2.73,1.02,4.08,0,0,.02-.05.02-.05-.07.23-.17.42-.42.49Z"/>
      <path class="cls-3" d="M229.09,96.86c.53.26.62,1.11,1.38,1.08-.04.13-.12.26-.1.38.44,2.53.12,4.99-.56,7.43-.15.05-.31.1-.46.16-.3-.64-.25-1.32-.07-1.97.43-1.61.27-3.17-.2-4.73-.23-.78-.35-1.57,0-2.35Z"/>
      <path class="cls-3" d="M235.05,79.61c.5-.26.65-.38.83-.43.34-.1.85-.48.96.1.09.47-.5.5-.89.52-.18,0-.37-.07-.9-.19Z"/>
      <path class="cls-3" d="M234.91,76.98c.52-.44.82-.75,1.33-.6-.26.45-.63.62-1.33.6Z"/>
      <path class="cls-3" d="M237.94,73.03s-.01.14-.01.14c-.46.04-.91.08-1.37.13v.02c.41-.38.89-.34,1.38-.28Z"/>
      <path class="cls-3" d="M232.95,75.72c.04-.18.07-.36.11-.54.31.26-.11.35-.13.53,0,0,.02.02.02.02Z"/>
      <path class="cls-3" d="M235.76,73.71c-.17.22-.38.37-.67.29-.04-.01-.09-.14-.08-.16.21-.2.48-.17.74-.14,0,0,0,.01,0,.01Z"/>
      <path class="cls-3" d="M232.15,77.73c.04-.43.08-.86.41-1.18l-.02-.02c-.02.44-.11.85-.41,1.18l.02.02Z"/>
      <path class="cls-3" d="M232.13,77.71c-.05.09-.09.19-.14.28,0-.05,0-.1.03-.13.03-.05.09-.08.13-.13,0,0-.02-.02-.02-.02Z"/>
      <path class="cls-3" d="M236.56,73.3c-.14.37-.47.4-.79.42,0,0,0-.01,0-.01.16-.36.49-.38.82-.39,0,0-.01-.02-.01-.02Z"/>
      <path class="cls-3" d="M232.56,76.55c.04-.32.13-.61.39-.83,0,0-.02-.02-.02-.02-.05.31-.13.62-.39.83,0,0,.02.02.02.02Z"/>
      <path class="cls-3" d="M229.41,70.43c-.03-.19.06-.27.24-.27-.08.09-.16.18-.24.27Z"/>
      <path class="cls-3" d="M229.01,70.77l.06-.18s.18-.03.18-.02c-.02.13-.1.2-.24.2Z"/>
      <polygon class="cls-2" points="239.18 72.23 239.27 72.33 239.15 72.24 239.18 72.23"/>
      <path class="cls-3" d="M177.72,33.79c-1.02-.05-1.8-.07-2.34.75-.37.55-1.13.43-1.62.04-.56-.43-1.2-.67-1.94-.93,2.34-1.54,3.75-1.52,5.91.13Z"/>
      <path class="cls-3" d="M170.35,31.74c2.4-2.25,6.24-2.41,8.1-.49-1.44.09-2.67-.6-3.99-.48-1.27.11-2.42.69-4.1.97Z"/>
      <path class="cls-3" d="M182.15,43.75h-5.06c1.67-.81,3.36-1.32,5.11-.51l-.05.51Z"/>
      <path class="cls-3" d="M180.79,45.14c-.36.47-.7.42-1.02.41-.26,0-.53-.02-.69-.46.52-.35,1.04-.28,1.71.06Z"/>
      <path class="cls-3" d="M130.9,169.02c.09-.36-.28-1.02.39-1.28.4-.16.75.19,1.02.49.42.47.69,1.02.33,1.64-.16.28-.4.53-.66.73-.58.45-.98.28-1.07-.45-.04-.33,0-.67,0-1.13Z"/>
      <path class="cls-3" d="M129.41,170.75c-1-.15-1.52-.66-1.62-1.45-.08-.66.35-1.14.92-1.42.42-.21.83-.15.87.41.06.79.19,1.59-.18,2.47Z"/>
      <path class="cls-3" d="M131.09,173.03c.98,1,.91,1.69.08,2.53-.5-.81-.34-1.5-.08-2.53Z"/>
      <path class="cls-3" d="M131.1,178.06c.61.79.64,1.3,0,1.86-.44-.62-.38-1.15,0-1.86Z"/>
      <path class="cls-3" d="M129.26,173.05c.57.91.55,1.49.19,2.16-.8-.56-.61-1.16-.19-2.16Z"/>
      <path class="cls-3" d="M129.53,178.31c.25.17.23.43.21.69-.02.19-.11.43-.32.35-.28-.11-.27-.42-.23-.68.03-.18.09-.36.34-.36Z"/>
      <path class="cls-3" d="M216.05,29.87c.36,0,.61.16.76.48-.37.03-.61-.16-.76-.48Z"/>
      <path class="cls-3" d="M216.81,30.34c.24-.02.41.07.49.3-.23.01-.4-.09-.49-.3Z"/>
      <path class="cls-3" d="M217.54,30.79c.25-.02.43.08.51.33-.26.03-.42-.1-.51-.33Z"/>
      <path class="cls-1" d="M181.91,31.87c1.2-.67,2.34-1.44,3.85-1.18.8.14,1.18.52,1.17,1.31,0,.61-.16,1.05-.94.85-.97-.26-1.98-.3-2.94-.02-.95.27-.89-.49-1.15-.95,0,0,0,0,0,0Z"/>
      <path class="cls-1" d="M221.69,84.63c.25-.07.35-.27.42-.49,0,.28-.21.39-.42.49Z"/>
    </g>
  </g>
</svg>